<?xml version="1.0" encoding="utf-8"?>
<!-- Generator: Adobe Illustrator 25.0.1, SVG Export Plug-In . SVG Version: 6.00 Build 0)  -->
<svg version="1.1" id="Layer_1" xmlns="http://www.w3.org/2000/svg" xmlns:xlink="http://www.w3.org/1999/xlink" x="0px" y="0px"
	 viewBox="0 0 617 258" style="enable-background:new 0 0 617 258;" xml:space="preserve">
<style type="text/css">
	.st0{fill:none;stroke:#EAE8F1;stroke-width:0.5;stroke-dasharray:2,2;}
	.st1{fill:#FFFFFF;fill-opacity:0.1;}
	.st2{fill:none;stroke:#FFFFFF;stroke-opacity:0.7;}
</style>
<line class="st0" x1="565.8" y1="258" x2="565.8" y2="0"/>
<line class="st0" x1="51.8" y1="258" x2="51.8" y2="0"/>
<line class="st0" x1="276.1" y1="258" x2="276.1" y2="0"/>
<line class="st0" x1="287.1" y1="258" x2="287.1" y2="0"/>
<line class="st0" x1="68.8" y1="258" x2="68.8" y2="0"/>
<line class="st0" x1="79.8" y1="258" x2="79.8" y2="0"/>
<line class="st0" x1="303.8" y1="258" x2="303.8" y2="0"/>
<line class="st0" x1="314.8" y1="258" x2="314.8" y2="0"/>
<line class="st0" x1="482.8" y1="258" x2="482.8" y2="0"/>
<line class="st0" x1="493.8" y1="258" x2="493.8" y2="0"/>
<line class="st0" x1="407.8" y1="258" x2="407.8" y2="0"/>
<line class="st0" x1="410.8" y1="258" x2="410.8" y2="0"/>
<path class="st1" d="M70.7,71.7c2.7-5.4,6.9-10,12.1-13.1c5.2-3.2,11.3-4.9,17.5-4.9h416.3c6.2,0,12.2,1.7,17.5,4.9
	c5.2,3.2,9.4,7.7,12.1,13.1H566c-3.1-10.3-9.6-19.4-18.5-25.9c-8.9-6.5-19.7-10-30.8-10H100.3c-11.1,0-21.9,3.5-30.8,10
	C60.6,52.3,54.1,61.3,51,71.7H70.7z"/>
<path class="st2" d="M82.6,58.1c-5.2,3.2-9.5,7.7-12.2,13.1H51.7c3.1-10,9.5-18.7,18.1-25c8.8-6.4,19.5-9.9,30.5-9.9l0,0h416.3
	c11,0,21.7,3.5,30.5,9.9c8.6,6.3,15,15,18.1,25h-18.7c-2.7-5.4-6.9-9.9-12.2-13c-5.3-3.2-11.5-4.9-17.7-5H100.4
	C94.1,53.2,87.9,54.9,82.6,58.1z"/>
<path class="st1" d="M520.1,184.5c-2.7,5.4-6.9,9.9-12.1,13.1c-5.2,3.2-11.3,4.9-17.5,4.9H100.3c-6.2,0-12.3-1.7-17.5-4.9
	c-5.2-3.2-9.5-7.7-12.2-13.1H51c3.1,10.3,9.6,19.4,18.5,25.9c8.9,6.5,19.7,10,30.8,10h390.1c11.1,0,21.9-3.5,30.8-10
	c8.9-6.5,15.4-15.5,18.5-25.9H520.1z"/>
<path class="st2" d="M490.5,203L490.5,203c6.3,0,12.4-1.7,17.7-5c5.2-3.2,9.4-7.7,12.2-13h18.7c-3.1,10-9.5,18.7-18.1,25
	c-8.8,6.4-19.5,9.9-30.5,9.9H100.3c-11,0-21.7-3.5-30.5-9.9c-8.6-6.3-15-15-18.1-25h18.7c2.7,5.4,7,9.9,12.2,13
	c5.3,3.2,11.5,4.9,17.8,4.9H490.5z"/>
<path class="st1" d="M51,173.2h18.2V85H51V173.2z"/>
<path class="st2" d="M68.7,85.5v87.2H51.5V85.5H68.7z"/>
<path class="st1" d="M170,173h-18.2v-62c0-1.2-0.2-2.3-0.7-3.4c-0.5-1-1.1-2-2-2.7c-0.8-0.8-1.8-1.4-2.9-1.9
	c-1.1-0.4-2.3-0.7-3.6-0.7c-1.2,0-2.4,0.2-3.6,0.7c-1.1,0.4-2.1,1.1-2.9,1.9c-0.8,0.8-1.5,1.7-1.9,2.7c-0.5,1.1-0.7,2.2-0.7,3.4v62
	h-18.2v-62c0-1.2-0.2-2.3-0.7-3.4c-0.9-2.1-2.7-3.7-4.8-4.6c-2.3-0.9-4.8-0.9-7.1,0c-1.1,0.4-2.1,1.1-2.9,1.9
	c-0.8,0.8-1.5,1.7-1.9,2.7c-0.5,1.1-0.7,2.2-0.7,3.4v62H79v-62c0-3.5,0.7-6.9,2.2-10.1c2.8-6.2,8-11.2,14.5-13.9
	c6.5-2.6,13.8-2.7,20.3-0.3c3.1,1.1,6,2.8,8.5,5c4.9-4.3,11.4-6.7,18.2-6.7c3.7,0,7.3,0.7,10.6,2.1c3.2,1.3,6.2,3.2,8.7,5.6
	c2.5,2.4,4.5,5.2,5.8,8.3c1.4,3.2,2.2,6.7,2.2,10.1L170,173z"/>
<path class="st2" d="M96.7,111v61.5H79.5V111l0,0c0-3.4,0.7-6.8,2.1-9.9l0,0c2.7-6.1,7.8-11,14.3-13.6c6.4-2.5,13.5-2.6,20-0.3
	c3.1,1.1,5.9,2.8,8.3,4.9l0.3,0.3l0.3-0.3c4.9-4.3,11.2-6.6,17.8-6.6h0c3.6,0,7.1,0.7,10.4,2c3.2,1.3,6.1,3.2,8.5,5.5
	c2.4,2.3,4.4,5.1,5.7,8.1l0,0c1.4,3.1,2.1,6.5,2.1,9.9v0l0,61.5h-17.2V111c0,0,0,0,0,0c0-1.2-0.3-2.5-0.8-3.6l0,0
	c-0.5-1.1-1.2-2.1-2.1-2.9l0,0c-0.9-0.8-1.9-1.5-3-2l0,0l0,0c-1.2-0.5-2.5-0.7-3.7-0.7c-1.3,0-2.6,0.2-3.7,0.7l0,0
	c-1.1,0.5-2.2,1.1-3.1,2c-0.9,0.8-1.6,1.8-2,2.9c-0.5,1.1-0.8,2.4-0.7,3.6v61.5h-17.2V111c0,0,0,0,0,0c0-1.2-0.2-2.4-0.7-3.6l0,0
	l0,0c-1-2.2-2.8-3.9-5.1-4.9l0,0l0,0c-2.4-0.9-5.1-0.9-7.5,0v0l0,0c-1.1,0.5-2.2,1.1-3.1,2l0,0l0,0c-0.9,0.8-1.6,1.8-2,2.9l0,0
	C97,108.6,96.7,109.8,96.7,111z"/>
<path class="st1" d="M203.6,111.4c0-3.5,0.7-7,2.2-10.3c1.4-3.1,3.4-6,5.9-8.4c2.5-2.4,5.4-4.3,8.7-5.7c3.4-1.4,7-2.1,10.6-2.1h41.8
	v17.7h-41.8c-1.2,0-2.4,0.2-3.6,0.7c-1.1,0.4-2.1,1.1-2.9,1.9c-0.8,0.8-1.5,1.8-1.9,2.8c-0.5,1.1-0.7,2.3-0.7,3.5
	c0,1.2,0.2,2.4,0.7,3.5c0.4,1.1,1.1,2,1.9,2.8c0.8,0.8,1.8,1.4,2.9,1.9c1.1,0.5,2.3,0.7,3.6,0.7h18.2c3.7,0,7.3,0.7,10.7,2.1
	c6.6,2.7,11.8,7.7,14.6,14.1c1.4,3.3,2.1,6.8,2.1,10.3c0,3.5-0.7,7-2.1,10.3c-1.4,3.1-3.4,6-5.8,8.4c-2.5,2.4-5.4,4.3-8.7,5.7
	c-3.4,1.4-7,2.1-10.7,2.1h-40.5v-17.7h40.5c1.8,0,3.6-0.5,5.1-1.4c1.5-1,2.7-2.3,3.3-3.9c0.5-1.1,0.7-2.3,0.7-3.4
	c0-1.2-0.2-2.4-0.7-3.4c-0.7-1.6-1.9-3-3.4-3.9c-1.5-1-3.2-1.5-5-1.4h-18.2c-3.7,0-7.3-0.7-10.6-2.1c-3.2-1.4-6.2-3.3-8.7-5.7
	c-2.5-2.4-4.5-5.3-5.9-8.4C204.3,118.5,203.5,115,203.6,111.4z"/>
<path class="st2" d="M204.1,111.4L204.1,111.4L204.1,111.4c0-3.5,0.7-6.9,2.1-10.1c1.4-3.1,3.3-5.9,5.8-8.2c2.4-2.4,5.3-4.3,8.5-5.6
	l0,0c3.3-1.4,6.8-2.1,10.4-2.1h0h41.3v16.7h-41.3c-1.3,0-2.6,0.2-3.7,0.7c-1.1,0.5-2.2,1.1-3.1,2c-0.9,0.8-1.6,1.9-2,3
	c-0.5,1.2-0.8,2.4-0.7,3.7c0,1.3,0.2,2.5,0.7,3.7c0.5,1.1,1.2,2.1,2,3c0.9,0.8,1.9,1.5,3.1,2c1.2,0.5,2.5,0.7,3.7,0.7h18.2h0
	c3.6,0,7.2,0.7,10.5,2.1l0,0l0,0c6.5,2.6,11.6,7.6,14.3,13.8l0,0c1.4,3.2,2.1,6.6,2.1,10.1s-0.7,6.9-2.1,10.1
	c-1.4,3.1-3.3,5.9-5.7,8.2c-2.5,2.4-5.3,4.3-8.5,5.6c-3.3,1.4-6.9,2.1-10.5,2.1h0h-40V156h40c1.9,0,3.7-0.5,5.3-1.5
	c1.6-1,2.8-2.5,3.5-4.2c0.5-1.2,0.8-2.4,0.7-3.6c0-1.2-0.2-2.5-0.7-3.6v0c-0.7-1.7-2-3.1-3.6-4.1c-1.6-1-3.4-1.5-5.3-1.5h-18.2h0
	c-3.6,0-7.1-0.7-10.4-2.1c-3.2-1.3-6.1-3.2-8.5-5.6c-2.4-2.4-4.4-5.2-5.8-8.2C204.7,118.4,204,114.9,204.1,111.4z"/>
<path class="st1" d="M304,173.2h-17.5V85H304V173.2z"/>
<path class="st2" d="M303.5,172.7h-16.5V85.5h16.5V172.7z"/>
<path class="st1" d="M408,128.9c0,4.1-0.6,8.2-1.7,12.2c-1.1,3.8-2.7,7.5-4.7,11c-2,3.4-4.5,6.5-7.3,9.3c-2.8,2.8-6,5.2-9.5,7.2
	c-7.2,4.2-15.4,6.4-23.8,6.4c-4.2,0-8.4-0.5-12.4-1.7c-3.9-1.1-7.7-2.6-11.2-4.6c-7-4-12.8-9.7-16.9-16.6c-2.1-3.4-3.7-7.1-4.8-11
	c-2.2-8-2.2-16.4,0-24.4c1.1-3.9,2.7-7.5,4.8-11c2.1-3.4,4.5-6.5,7.4-9.3c2.8-2.8,6.1-5.2,9.5-7.2c3.5-2,7.3-3.6,11.2-4.6
	c4-1.1,8.2-1.7,12.4-1.7c4.2,0,8.4,0.5,12.5,1.7c9.9,2.7,18.7,8.4,24.9,16.4C404.6,109.1,407.9,118.9,408,128.9L408,128.9z
	 M389.9,128.9c0.1-3.8-0.7-7.5-2.2-11c-2.9-6.8-8.4-12.2-15.4-15c-3.6-1.5-7.4-2.2-11.3-2.2s-7.7,0.8-11.3,2.2
	c-3.4,1.4-6.5,3.5-9.2,6c-2.6,2.6-4.8,5.6-6.2,9c-1.5,3.5-2.3,7.2-2.3,11c0,3.8,0.8,7.5,2.3,10.9c3,6.8,8.5,12.2,15.4,15.1
	c3.6,1.5,7.4,2.2,11.3,2.2c3.9,0,7.7-0.8,11.3-2.2c3.4-1.4,6.5-3.5,9.1-6.1c2.6-2.6,4.7-5.6,6.2-9
	C389.2,136.4,390,132.7,389.9,128.9z"/>
<path class="st2" d="M407.4,130L407.4,130c0,3.7-0.5,7.4-1.6,11c-1.1,3.8-2.7,7.4-4.7,10.8l0,0c-2,3.4-4.4,6.5-7.2,9.2
	c-2.8,2.8-6,5.2-9.4,7.2c-7.1,4.1-15.3,6.3-23.5,6.3h0c-4.2,0-8.3-0.5-12.3-1.6h0c-3.9-1.1-7.6-2.6-11.1-4.6
	c-6.9-4-12.7-9.6-16.7-16.4c-2-3.4-3.6-7-4.7-10.8c-2.2-7.9-2.2-16.2,0-24.1c1.1-3.8,2.7-7.5,4.7-10.9c2-3.4,4.5-6.4,7.3-9.2l0,0
	c2.8-2.8,6-5.2,9.4-7.1c3.5-2,7.2-3.5,11.1-4.6l0,0c4-1.1,8.1-1.6,12.3-1.6h0c4.2,0,8.3,0.5,12.4,1.6l0,0
	c9.8,2.6,18.5,8.4,24.6,16.3c6.2,7.9,9.5,17.6,9.5,27.6L407.4,130z M388.2,117.7L388.2,117.7c-3-6.9-8.6-12.4-15.6-15.3
	c-3.6-1.5-7.5-2.3-11.4-2.3c-3.9,0-7.8,0.8-11.4,2.3h0c-3.5,1.5-6.6,3.5-9.3,6.1l0,0c-2.7,2.6-4.8,5.7-6.3,9.2
	c-1.6,3.5-2.3,7.4-2.3,11.2c0,3.8,0.8,7.6,2.3,11.1c3,6.9,8.6,12.4,15.7,15.3l0,0c3.6,1.5,7.5,2.3,11.4,2.3c3.9,0,7.8-0.8,11.4-2.3
	l0,0c3.4-1.5,6.6-3.6,9.2-6.2l0,0c2.7-2.6,4.8-5.7,6.3-9.1v0c1.6-3.5,2.3-7.3,2.3-11.2C390.5,125.1,389.8,121.2,388.2,117.7z"/>
<path class="st1" d="M455.7,173.2h-18.2v-70.6h-27.4V85h72.9v17.7h-27.3V173.2z"/>
<path class="st2" d="M455.2,102.6v70.1h-17.2v-70.1v-0.5h-0.5h-26.9V85.5h71.9v16.7h-26.8h-0.5V102.6z"/>
<path class="st1" d="M538.7,173.2h-18.2v-27.6c-4-0.9-7.7-2.6-11.2-4.7c-5-3.2-9.1-7.6-12-12.7c-2.8-5.1-4.3-10.9-4.3-16.7V85h18.2
	v26.5c0,2.4,0.5,4.7,1.4,6.8c0.9,2.1,2.2,4,3.9,5.6c1.7,1.6,3.6,2.9,5.8,3.8c2.2,0.9,4.6,1.4,7.1,1.4c2.4,0,4.8-0.5,7.1-1.4
	c4.4-1.8,7.9-5.2,9.7-9.4c1-2.2,1.4-4.5,1.4-6.8V85H566v26.5c0,3.9-0.7,7.9-2,11.6c-2.6,7.3-7.6,13.5-14.2,17.8
	c-3.4,2.2-7.1,3.8-11,4.7V173.2z"/>
<path class="st2" d="M538.2,172.7v-27.1v-0.4l0.4-0.1c3.9-0.9,7.6-2.5,10.9-4.7l0,0c6.5-4.2,11.5-10.4,14-17.6v0
	c1.3-3.7,2-7.5,2-11.4l0,0l0-26h-17.2v26c0,2.4-0.5,4.8-1.5,7.1l0,0c-1.9,4.4-5.5,7.8-10,9.7l0,0c-2.3,0.9-4.8,1.4-7.3,1.4
	c-2.5,0-5-0.5-7.3-1.4 M538.2,172.7h-17.2v-27.1v-0.4l-0.4-0.1c-3.9-0.9-7.6-2.5-11-4.7l0,0c-5-3.2-9-7.5-11.8-12.5
	c-2.8-5.1-4.3-10.7-4.2-16.4v0v-26h17.2v26c0,2.4,0.5,4.8,1.5,7c0.9,2.2,2.3,4.1,4,5.8 M522.3,128.2c-2.2-0.9-4.3-2.2-6-3.9
	 M538.2,172.7 M516.3,124.3C516.3,124.3,516.3,124.3,516.3,124.3l0.3-0.4L516.3,124.3C516.3,124.3,516.3,124.3,516.3,124.3z"/>
<line class="st0" x1="0" y1="53.8" x2="617" y2="53.8"/>
<line class="st0" x1="0" y1="36.8" x2="617" y2="36.8"/>
<line class="st0" x1="0" y1="219.8" x2="617" y2="219.8"/>
<line class="st0" x1="0" y1="202.8" x2="617" y2="202.8"/>
<line class="st0" x1="0" y1="172.8" x2="617" y2="172.8"/>
<line class="st0" x1="0" y1="174.8" x2="617" y2="174.8"/>
<line class="st0" x1="0" y1="83.4" x2="617" y2="83.4"/>
<line class="st0" x1="0" y1="85.4" x2="617" y2="85.4"/>
</svg>
