<svg width="121" height="120" viewBox="0 0 121 120" fill="none" xmlns="http://www.w3.org/2000/svg">
    <style>
        .text {
            animation: loading 6.5s linear infinite;
            transform-origin: center;
        }

        @keyframes loading {
            0% {
                transform: rotate(0);
            }

            100% {
                transform: rotate(360deg);
            }
        }
    </style>
    <g class="text">
        <circle cx="60.5" cy="60.5" r="27.75" stroke="#E5DFD6" stroke-width="1.5" />
        <path
            d="M39.3294 22.6666L36.7663 23.9613L34.2818 19.0429C34.6891 18.214 35.2587 17.4481 35.9904 16.7451C36.7222 16.0422 37.5268 15.4691 38.4043 15.0258C39.6628 14.3901 40.9284 14.0841 42.2011 14.1078C43.4797 14.1431 44.6467 14.4883 45.7023 15.1434C46.7521 15.8159 47.5802 16.7526 48.1868 17.9533C48.7933 19.154 49.0528 20.3707 48.9653 21.6032C48.8721 22.8531 48.4516 24.0002 47.7039 25.0445C46.962 26.1004 45.956 26.9491 44.686 27.5906C43.6238 28.1271 42.5694 28.4352 41.5226 28.5147C40.4759 28.5942 39.4861 28.442 38.5532 28.0583L39.5145 25.4859C40.8411 25.9606 42.1164 25.8888 43.3402 25.2706C44.1138 24.8799 44.7191 24.3712 45.1562 23.7447C45.5932 23.1181 45.8305 22.4259 45.8678 21.6679C45.9052 20.91 45.7315 20.15 45.3465 19.388C44.9675 18.6375 44.4618 18.0524 43.8295 17.6328C43.1973 17.2131 42.5022 16.9845 41.7442 16.9471C40.9805 16.9271 40.2177 17.1096 39.4557 17.4945C38.6475 17.9027 38.0076 18.4434 37.536 19.1163L39.3294 22.6666Z"
            fill="#E5DFD6" />
        <path
            d="M24.3263 25.5461C25.2992 24.531 26.3972 23.8234 27.6203 23.4233C28.8345 23.0325 30.0466 22.9702 31.2565 23.2364C32.4668 23.5209 33.5516 24.1227 34.5109 25.042C35.4701 25.9613 36.113 27.0151 36.4393 28.2033C36.766 29.4097 36.76 30.6278 36.4213 31.8575C36.0736 33.0966 35.4133 34.2237 34.4405 35.2388C33.4676 36.2539 32.3741 36.9569 31.1599 37.3477C29.9457 37.7384 28.729 37.7962 27.5097 37.5211C26.2998 37.2549 25.2152 36.6622 24.2559 35.7429C23.2966 34.8236 22.6536 33.7607 22.3269 32.5543C22.0095 31.3568 22.0202 30.1431 22.3589 28.9134C22.6977 27.6837 23.3535 26.5612 24.3263 25.5461ZM26.2542 27.3936C25.7008 27.971 25.3314 28.6175 25.1459 29.3331C24.9697 30.0576 24.9942 30.7778 25.2192 31.4937C25.4354 32.219 25.8461 32.8717 26.4515 33.4518C27.0568 34.032 27.7264 34.4146 28.4602 34.5997C29.1851 34.7941 29.9011 34.7834 30.6081 34.5677C31.3244 34.3608 31.9593 33.9687 32.5126 33.3913C33.066 32.8139 33.4308 32.1629 33.6069 31.4384C33.7924 30.7229 33.7771 30.0025 33.5609 29.2772C33.3359 28.5612 32.9207 27.9132 32.3153 27.3331C31.7099 26.7529 31.0448 26.3657 30.32 26.1712C29.5862 25.9861 28.8611 25.997 28.1447 26.2038C27.4377 26.4196 26.8075 26.8162 26.2542 27.3936Z"
            fill="#E5DFD6" />
        <path
            d="M23.6421 47.3336L25.0111 43.2087L27.4419 44.0154L23.7138 55.2485L21.2831 54.4417L22.6521 50.3168L12.1924 46.8455L13.1825 43.8623L23.6421 47.3336Z"
            fill="#E5DFD6" />
        <path
            d="M10.0037 61.7704C9.96461 60.361 10.2331 59.079 10.8092 57.9242C11.3857 56.7825 12.1951 55.8736 13.2374 55.1977C14.293 54.5343 15.4867 54.1842 16.8185 54.1472C18.1503 54.1102 19.3551 54.3938 20.433 54.9979C21.5241 55.6147 22.3892 56.477 23.0281 57.5851C23.6674 58.706 24.0066 59.9712 24.0457 61.3806C24.0848 62.79 23.8162 64.0655 23.2397 65.2073C22.6632 66.3491 21.8473 67.2581 20.7921 67.9344C19.7498 68.6104 18.5627 68.9668 17.2309 69.0038C15.8991 69.0407 14.6877 68.7509 13.5965 68.1342C12.5183 67.5171 11.6598 66.6545 11.0208 65.5465C10.3819 64.4384 10.0429 63.1797 10.0037 61.7704ZM12.6802 61.6961C12.7025 62.4977 12.9036 63.2168 13.2836 63.8532C13.6765 64.4893 14.2077 64.9792 14.8772 65.323C15.547 65.6796 16.3022 65.8463 17.1426 65.823C17.9831 65.7997 18.7278 65.5914 19.3768 65.1981C20.0262 64.8177 20.523 64.2993 20.867 63.6427C21.2241 62.9858 21.3915 62.2565 21.3692 61.4549C21.347 60.6532 21.1394 59.9343 20.7465 59.2983C20.3665 58.6618 19.8416 58.1652 19.1717 57.8086C18.5022 57.4648 17.7473 57.3046 16.9068 57.328C16.0664 57.3513 15.3215 57.5531 14.6721 57.9335C14.0231 58.3268 13.52 58.8518 13.163 59.5088C12.8189 60.1653 12.658 60.8944 12.6802 61.6961Z"
            fill="#E5DFD6" />
        <path
            d="M25.2964 77.3308L23.1894 73.5296L25.4294 72.2879L31.1674 82.6395L28.9274 83.8812L26.8203 80.08L17.1815 85.4229L15.6576 82.6737L25.2964 77.3308Z"
            fill="#E5DFD6" />
        <path
            d="M26.4799 97.147C25.4366 96.2023 24.6974 95.1238 24.2624 93.9112C23.837 92.7074 23.7403 91.4963 23.9723 90.2781C24.2226 89.059 24.7941 87.9565 25.6867 86.9706C26.5794 85.9847 27.6155 85.3116 28.7952 84.9514C29.9931 84.5902 31.2121 84.5617 32.4522 84.8658C33.7018 85.1786 34.8483 85.8073 35.8917 86.7519C36.935 87.6966 37.6694 88.7708 38.0948 89.9747C38.5203 91.1785 38.6126 92.3944 38.3719 93.6221C38.1398 94.8404 37.5775 95.9424 36.6848 96.9283C35.7922 97.9142 34.7469 98.5878 33.549 98.9489C32.3598 99.3005 31.1451 99.3242 29.905 99.0201C28.665 98.716 27.5233 98.0916 26.4799 97.147ZM28.2739 95.1656C28.8673 95.7029 29.5247 96.0542 30.2459 96.2196C30.9759 96.3753 31.6958 96.3304 32.4058 96.0849C33.1254 95.8481 33.7668 95.4186 34.3302 94.7964C34.8935 94.1742 35.2573 93.4934 35.4217 92.7539C35.5957 92.0231 35.5647 91.307 35.3288 90.6056C35.1015 89.8947 34.6912 89.2706 34.0977 88.7333C33.5043 88.196 32.8426 87.8494 32.1127 87.6937C31.3914 87.5284 30.671 87.5642 29.9514 87.801C29.2414 88.0465 28.6048 88.4804 28.0414 89.1025C27.4781 89.7247 27.1095 90.4012 26.9355 91.132C26.7711 91.8715 26.8025 92.5967 27.0298 93.3076C27.2657 94.009 27.6804 94.6283 28.2739 95.1656Z"
            fill="#E5DFD6" />
        <path
            d="M47.2696 93.8568C48.3896 94.2957 49.2859 94.8623 49.9585 95.5566C50.6432 96.2556 51.0738 97.0357 51.2504 97.8968C51.427 98.7578 51.3312 99.6581 50.9631 100.597C50.5997 101.525 50.0583 102.25 49.3389 102.774C48.6243 103.286 47.7784 103.566 46.8011 103.614C45.8405 103.654 44.8003 103.455 43.6803 103.016L41.1331 102.017L39.7668 105.504L36.8403 104.357L41.7959 91.7117L47.2696 93.8568ZM44.4522 100.567C45.3313 100.912 46.0729 100.987 46.6768 100.793C47.2855 100.587 47.7267 100.135 48.0004 99.4364C48.2789 98.7259 48.2625 98.0942 47.9511 97.5416C47.6445 96.9768 47.0516 96.5222 46.1725 96.1777L43.7879 95.2432L42.0676 99.6329L44.4522 100.567Z"
            fill="#E5DFD6" />
        <path d="M58.03 103.156L63.5203 103.071L63.5575 105.496L58.0673 105.581L58.03 103.156Z" fill="#E5DFD6" />
        <path
            d="M80.286 97.9297L82.9222 96.7911L85.1071 101.85C84.6508 102.653 84.0363 103.383 83.2637 104.041C82.491 104.699 81.6535 105.222 80.751 105.612C79.4566 106.171 78.1749 106.401 76.9059 106.301C75.6318 106.189 74.4875 105.774 73.4732 105.057C72.4657 104.323 71.6952 103.338 71.1618 102.103C70.6284 100.868 70.4424 99.638 70.6037 98.413C70.7717 97.171 71.2603 96.0511 72.0693 95.0536C72.8732 94.0441 73.9283 93.2573 75.2345 92.6931C76.327 92.2213 77.398 91.9771 78.4476 91.9605C79.4972 91.944 80.4761 92.1553 81.3843 92.5943L80.2704 95.1044C78.9747 94.5509 77.6974 94.546 76.4387 95.0897C75.6431 95.4333 75.0083 95.9047 74.5345 96.5039C74.0606 97.1031 73.7822 97.7799 73.6994 98.5342C73.6166 99.2886 73.7445 100.058 74.083 100.841C74.4164 101.613 74.886 102.228 75.492 102.684C76.0979 103.141 76.778 103.411 77.5324 103.494C78.2935 103.56 79.0659 103.423 79.8496 103.085C80.6808 102.726 81.352 102.225 81.8631 101.581L80.286 97.9297Z"
            fill="#E5DFD6" />
        <path
            d="M95.4577 95.5257C94.4557 96.5176 93.3364 97.198 92.0998 97.5667C90.8723 97.9264 89.6557 97.9568 88.4498 97.658C87.2441 97.3409 86.1726 96.7089 85.2353 95.7621C84.298 94.8153 83.6814 93.742 83.3857 92.5423C83.09 91.3243 83.1282 90.1035 83.5002 88.8797C83.8815 87.6469 84.5731 86.5345 85.5751 85.5426C86.5771 84.5507 87.6918 83.8749 88.9193 83.5152C90.1467 83.1556 91.3679 83.1298 92.5829 83.4378C93.7887 83.7365 94.8603 84.3594 95.7976 85.3062C96.7349 86.253 97.3513 87.3354 97.647 88.5534C97.9336 89.7622 97.8908 90.9785 97.5188 92.2023C97.1467 93.426 96.4597 94.5338 95.4577 95.5257ZM93.574 93.6229C94.1439 93.0587 94.5313 92.4204 94.7362 91.708C94.9319 90.9864 94.9264 90.2638 94.7197 89.5402C94.5222 88.8074 94.1277 88.1423 93.5362 87.5448C92.9447 86.9473 92.2836 86.5461 91.5529 86.3411C90.8314 86.1271 90.1134 86.1189 89.399 86.3165C88.6755 86.5049 88.0288 86.8812 87.4588 87.4454C86.8889 88.0096 86.506 88.6525 86.3103 89.3741C86.1055 90.0865 86.1018 90.8091 86.2993 91.5418C86.506 92.2654 86.9051 92.926 87.4966 93.5235C88.0881 94.121 88.7446 94.5268 89.4661 94.7408C90.1968 94.9457 90.9239 94.954 91.6475 94.7656C92.3619 94.568 93.0041 94.1871 93.574 93.6229Z"
            fill="#E5DFD6" />
        <path
            d="M96.477 73.7808L95.0862 77.9097L92.6531 77.0901L96.4405 65.8464L98.8736 66.6659L97.4828 70.7948L107.952 74.3214L106.947 77.3074L96.477 73.7808Z"
            fill="#E5DFD6" />
        <path
            d="M110.434 59.5983C110.434 61.0082 110.13 62.2823 109.522 63.4206C108.914 64.5459 108.08 65.4319 107.019 66.0787C105.945 66.7125 104.742 67.0294 103.41 67.0294C102.078 67.0294 100.881 66.7125 99.8206 66.0787C98.747 65.4319 97.9063 64.5459 97.2983 63.4206C96.6904 62.2823 96.3864 61.0082 96.3864 59.5983C96.3864 58.1883 96.6904 56.9207 97.2983 55.7954C97.9063 54.67 98.747 53.784 99.8206 53.1372C100.881 52.4905 102.078 52.1671 103.41 52.1671C104.742 52.1671 105.945 52.4905 107.019 53.1372C108.08 53.784 108.914 54.67 109.522 55.7954C110.13 56.9207 110.434 58.1883 110.434 59.5983ZM107.756 59.5983C107.756 58.7963 107.575 58.0719 107.213 57.4252C106.838 56.7784 106.32 56.274 105.661 55.9118C105.001 55.5367 104.251 55.3491 103.41 55.3491C102.569 55.3491 101.819 55.5367 101.159 55.9118C100.5 56.274 99.9888 56.7784 99.6266 57.4252C99.2515 58.0719 99.0639 58.7963 99.0639 59.5983C99.0639 60.4002 99.2515 61.1246 99.6266 61.7713C99.9888 62.4181 100.5 62.929 101.159 63.3041C101.819 63.6663 102.569 63.8474 103.41 63.8474C104.251 63.8474 105.001 63.6663 105.661 63.3041C106.32 62.929 106.838 62.4181 107.213 61.7713C107.575 61.1246 107.756 60.4002 107.756 59.5983Z"
            fill="#E5DFD6" />
        <path
            d="M95.7231 43.5473L97.6789 47.4154L95.3995 48.5679L90.0735 38.0343L92.3529 36.8818L94.3087 40.7499L104.117 35.7906L105.531 38.588L95.7231 43.5473Z"
            fill="#E5DFD6" />
        <path
            d="M95.1775 23.7732C96.1892 24.7553 96.8916 25.8608 97.2849 27.0899C97.6689 28.3099 97.7235 29.5257 97.4488 30.7373C97.1558 31.9491 96.5453 33.033 95.6172 33.9889C94.6892 34.9449 93.6285 35.5826 92.4349 35.9022C91.223 36.2221 90.0016 36.2082 88.7707 35.8605C87.5305 35.5039 86.4046 34.8345 85.393 33.8525C84.3813 32.8704 83.6835 31.7694 83.2995 30.5493C82.9155 29.3292 82.8654 28.1088 83.1492 26.888C83.4239 25.6764 84.0253 24.5927 84.9533 23.6367C85.8813 22.6808 86.9512 22.0429 88.1631 21.723C89.3659 21.4125 90.5828 21.431 91.8137 21.7787C93.0446 22.1263 94.1659 22.7911 95.1775 23.7732ZM93.3125 25.6944C92.7371 25.1358 92.0912 24.7612 91.3749 24.5706C90.6496 24.3892 89.9272 24.4091 89.2078 24.6302C88.4792 24.8422 87.8221 25.2499 87.2364 25.8531C86.6508 26.4564 86.2628 27.1254 86.0725 27.86C85.8728 28.5856 85.8789 29.3036 86.0907 30.0139C86.2935 30.7336 86.6826 31.3727 87.258 31.9313C87.8334 32.4899 88.4838 32.8599 89.2091 33.0412C89.9255 33.2318 90.648 33.2211 91.3766 33.009C92.096 32.788 92.7485 32.3758 93.3341 31.7725C93.9197 31.1693 94.3124 30.5048 94.512 29.7792C94.7023 29.0446 94.6961 28.3175 94.4933 27.5978C94.2816 26.8875 93.888 26.253 93.3125 25.6944Z"
            fill="#E5DFD6" />
        <path
            d="M74.3166 26.2313C73.214 25.7502 72.3398 25.1501 71.6939 24.4308C71.0362 23.7064 70.6354 22.9106 70.4916 22.0435C70.3478 21.1763 70.4776 20.2804 70.881 19.3556C71.2793 18.4427 71.8477 17.7381 72.5864 17.2419C73.3199 16.7574 74.1758 16.5099 75.1542 16.4993C76.1156 16.4953 77.1476 16.7339 78.2501 17.2149L80.7577 18.3088L82.255 14.8766L85.136 16.1334L79.7051 28.5821L74.3166 26.2313ZM77.3861 19.6322C76.5206 19.2546 75.7824 19.1513 75.1716 19.3223C74.5555 19.5051 74.0975 19.9404 73.7975 20.628C73.4924 21.3275 73.4849 21.9593 73.7751 22.5234C74.0601 23.0993 74.6353 23.576 75.5008 23.9536L77.8482 24.9777L79.7335 20.6563L77.3861 19.6322Z"
            fill="#E5DFD6" />
        <path d="M63.9924 16.5351L58.5015 16.4253L58.55 14L64.0409 14.1098L63.9924 16.5351Z" fill="#E5DFD6" />
    </g>
    <path d="M68.7305 59.3919L60.7391 51.4004L52.7476 59.3919" stroke="#E5DFD6" stroke-width="1.82663"
        stroke-linecap="square" />
    <path d="M60.7388 68.2303L60.7388 52.541" stroke="#E5DFD6" stroke-width="1.82663" stroke-linecap="square"
        stroke-linejoin="round" />
    <circle cx="60.5" cy="60.5" r="58.75" stroke="#E5DFD6" stroke-width="1.5" />
</svg>