<svg version="1.1" class="hi" xmlns="http://www.w3.org/2000/svg" x="0px" y="0px" viewBox="0 0 170 170"
    style="enable-background:new 0 0 170 170;" width="170px">
    <style>
        .st0 {
            fill: #E0FF23;
        }

        .st1 {
            fill: #1F1E1C;
        }

        .rotate {
            animation: loading 16s linear infinite;
            transform-origin: center;
        }

        @keyframes loading {
            0% {
                transform: rotate(0);
            }

            100% {
                transform: rotate(360deg);
            }
        }
    </style>
    <g class="rotate">
        <path class="st0" d="M169.9,85c0,6.3-7.5,11.5-8.8,17.4c-1.4,6.1,3,14.1,0.4,19.5c-2.6,5.5-11.7,7-15.5,11.8
		c-3.8,4.8-3.3,14-8,17.8c-4.8,3.8-13.6,1.3-19.1,3.9c-5.6,2.6-9,11.1-14.9,12.5c-5.9,1.4-12.6-4.8-18.9-4.8s-13.1,6.2-18.9,4.8
		c-6.1-1.4-9.6-9.9-14.9-12.5s-14.4-0.2-19.1-3.9c-4.8-3.8-4.3-13-8-17.8s-13-6.4-15.6-11.8c-2.6-5.6,1.8-13.5,0.4-19.5
		C7.5,96.5,0,91.3,0,85c0-6.3,7.5-11.5,8.8-17.4c1.4-6.1-3-14.1-0.4-19.5s11.7-7,15.5-11.8s3.3-14,8-17.8s13.6-1.3,19.1-3.9
		c5.6-2.7,9-11.1,14.9-12.5c5.9-1.3,12.7,4.8,19,4.8s13-6.2,18.9-4.8c6.1,1.4,9.6,9.9,14.9,12.5s14.4,0.1,19.1,3.9
		c4.8,3.8,4.3,13,8,17.8c3.8,4.8,12.9,6.3,15.5,11.8s-1.8,13.5-0.4,19.5C162.4,73.5,169.9,78.7,169.9,85z" />
        <g id="rotation">
            <path class="st1" d="M78.6,24.7l-0.4-6.8l0.9-0.1l0.2,3.1l3.5-0.2l-0.3-3.1h0.9l0.4,6.8l-0.9,0.1l-0.1-3l-3.5,0.2l0.2,3L78.6,24.7
			z" />
            <path class="st1" d="M71.7,21.3l4.2-0.7c0-0.2-0.1-0.5-0.3-0.7c-0.1-0.2-0.3-0.4-0.5-0.5c-0.4-0.3-0.8-0.3-1.3-0.3
			c-0.4,0-0.7,0.2-0.9,0.4c-0.2,0.2-0.4,0.5-0.4,0.8l-1,0.2c0.1-0.5,0.3-1,0.7-1.4c0.4-0.4,1-0.7,1.5-0.8c0.5-0.1,1,0,1.4,0.1
			c0.4,0.2,0.8,0.5,1.1,0.8c0.3,0.4,0.5,0.9,0.6,1.4c0.1,0.5,0.1,1-0.1,1.5c-0.1,0.4-0.4,0.8-0.8,1.1c-0.4,0.3-0.9,0.5-1.3,0.6
			c-0.5,0.1-1,0-1.4-0.1c-0.4-0.1-0.8-0.4-1.1-0.8c-0.3-0.4-0.5-0.8-0.5-1.3C71.8,21.6,71.8,21.4,71.7,21.3z M73.1,22.7
			c0.2,0.2,0.4,0.4,0.7,0.5c0.3,0.1,0.6,0.1,0.9,0.1c0.4-0.1,0.8-0.3,1.1-0.6c0.3-0.4,0.4-0.8,0.3-1.3L72.7,22
			C72.8,22.1,72.9,22.4,73.1,22.7z" />
            <path class="st1" d="M70.7,26.6l-1.7-7l0.9-0.2l1.7,7L70.7,26.6z" />
            <path class="st1" d="M68.6,27.2l-2-7l0.9-0.2l2,7L68.6,27.2z" />
            <path class="st1"
                d="M64,21.2c0.5,0.1,0.9,0.3,1.3,0.6c0.4,0.4,0.7,0.8,0.8,1.3c0.2,0.5,0.2,1,0.2,1.5c-0.1,0.5-0.3,0.9-0.6,1.3
			c-0.3,0.4-0.7,0.6-1.2,0.8c-0.5,0.2-1,0.2-1.5,0.1c-0.5-0.1-0.9-0.3-1.3-0.6c-0.4-0.4-0.7-0.8-0.8-1.3c-0.2-0.5-0.2-1-0.1-1.5
			c0.1-0.5,0.3-0.9,0.6-1.3s0.7-0.6,1.2-0.8C63,21.2,63.5,21.1,64,21.2z M62,22.6c-0.2,0.2-0.4,0.5-0.4,0.9c-0.1,0.4,0,0.8,0.1,1.2
			c0.1,0.4,0.3,0.7,0.6,1c0.2,0.2,0.5,0.4,0.9,0.4c0.3,0.1,0.6,0,0.9-0.1c0.3-0.1,0.6-0.3,0.8-0.5c0.2-0.2,0.4-0.5,0.4-0.9
			c0.1-0.4,0-0.8-0.1-1.1c-0.1-0.4-0.3-0.7-0.6-1c-0.2-0.2-0.5-0.4-0.9-0.4c-0.3,0-0.6,0-0.9,0.1C62.5,22.2,62.3,22.3,62,22.6z" />
            <path class="st1" d="M52.8,28.4l3.8-2c-0.1-0.2-0.3-0.4-0.4-0.5c-0.2-0.1-0.4-0.3-0.6-0.3c-0.4-0.1-0.9-0.1-1.3,0.2
			c-0.3,0.1-0.6,0.4-0.7,0.7c-0.2,0.3-0.2,0.6-0.2,0.9l-0.9,0.5c-0.1-0.5,0-1.1,0.2-1.5c0.3-0.5,0.7-0.9,1.2-1.2
			c0.4-0.2,0.9-0.3,1.4-0.3c0.5,0,0.9,0.2,1.3,0.4c0.4,0.3,0.8,0.7,1,1.2c0.2,0.5,0.4,1,0.4,1.5c0,0.5-0.1,0.9-0.4,1.3
			c-0.3,0.4-0.7,0.7-1.1,1c-0.4,0.2-0.9,0.3-1.4,0.3c-0.4,0-0.8-0.2-1.2-0.4c-0.4-0.3-0.7-0.6-0.9-1.1C53,28.7,52.9,28.5,52.8,28.4z
			 M54.5,29.3c0.2,0.1,0.5,0.2,0.8,0.2c0.3,0,0.6-0.1,0.9-0.2c0.4-0.2,0.7-0.5,0.9-0.9c0.1-0.4,0.1-0.9-0.1-1.3l-3,1.6
			C54,28.9,54.2,29.1,54.5,29.3L54.5,29.3z" />
            <path class="st1" d="M49.1,28.9l1.1,4.7l-0.8,0.5l-1.2-5.7l0.9-0.6l4.6,3.4L53,31.8L49.1,28.9z" />
            <path class="st1" d="M43.1,35.2l3.4-2.6c-0.1-0.2-0.3-0.3-0.5-0.4c-0.2-0.1-0.4-0.2-0.7-0.2c-0.2,0-0.5,0-0.7,0.1
			c-0.2,0.1-0.4,0.2-0.6,0.3c-0.3,0.2-0.5,0.5-0.6,0.8c-0.1,0.3-0.1,0.6,0,0.9l-0.8,0.6c-0.2-0.5-0.2-1-0.1-1.6
			c0.2-0.6,0.5-1.1,1-1.4c0.4-0.3,0.8-0.5,1.3-0.6c0.5-0.1,0.9,0,1.4,0.2c0.5,0.2,0.9,0.5,1.2,1c0.3,0.4,0.5,0.9,0.6,1.4
			c0.1,0.5,0,0.9-0.1,1.4c-0.2,0.5-0.5,0.8-0.9,1.1c-0.4,0.3-0.8,0.5-1.3,0.6c-0.4,0.1-0.9,0-1.3-0.2c-0.4-0.2-0.8-0.5-1.1-0.9
			C43.3,35.5,43.2,35.4,43.1,35.2z M44.9,35.8c0.3,0.1,0.6,0.1,0.8,0.1c0.3-0.1,0.6-0.2,0.8-0.4c0.4-0.3,0.6-0.6,0.7-1.1
			c0.1-0.5,0-0.9-0.3-1.3l-2.7,2.1C44.4,35.5,44.6,35.7,44.9,35.8z" />
            <path class="st1" d="M42.8,39.3c-0.1,0.4-0.3,0.7-0.6,0.9l-0.6-0.7l0.2-0.2c0.2-0.1,0.3-0.3,0.4-0.5c0.1-0.2,0.1-0.4,0.1-0.6
			s-0.1-0.4-0.1-0.6c-0.1-0.2-0.2-0.4-0.4-0.5l-2-2.1l0.7-0.6l3.6,4L43.5,39l-0.6-0.7C42.9,38.6,42.9,39,42.8,39.3z" />
            <path class="st1" d="M38.3,44.1l-3.5-7.8l0.6-0.7l1.2,2.5l5.3,2.1L41.2,41l-4.3-1.8l2,4.2L38.3,44.1z" />
            <path class="st1" d="M33.1,42.3c0.4-0.2,0.9-0.2,1.4-0.2c0.5,0.1,1,0.3,1.4,0.6c0.4,0.3,0.7,0.7,0.9,1.2c0.2,0.4,0.2,0.9,0.1,1.4
			s-0.3,0.9-0.6,1.3s-0.7,0.7-1.2,0.9c-0.4,0.2-0.9,0.3-1.4,0.2s-1-0.3-1.4-0.6c-0.4-0.3-0.7-0.7-0.9-1.2c-0.2-0.4-0.2-0.9-0.2-1.4
			c0.1-0.5,0.3-0.9,0.6-1.3C32.2,42.8,32.6,42.5,33.1,42.3z M32.2,44.5c-0.1,0.3,0,0.7,0.1,1c0.2,0.4,0.4,0.7,0.7,0.9
			c0.3,0.3,0.7,0.4,1,0.5s0.7,0,1-0.1c0.3-0.1,0.6-0.3,0.7-0.6c0.2-0.2,0.3-0.5,0.4-0.9c0.1-0.3,0-0.7-0.1-0.9
			c-0.2-0.4-0.4-0.7-0.7-0.9c-0.3-0.2-0.7-0.4-1-0.5c-0.3-0.1-0.6,0-0.9,0.1c-0.3,0.1-0.5,0.3-0.7,0.6
			C32.4,43.9,32.2,44.2,32.2,44.5z" />
            <path class="st1" d="M31.3,52.9c-0.3,0.1-0.6,0-0.9,0c-0.3-0.1-0.6-0.2-0.9-0.4l-2.6-1.8l0.5-0.8l2.5,1.7c0.4,0.3,0.8,0.4,1.3,0.3
			c0.2,0,0.4-0.1,0.6-0.3c0.2-0.1,0.3-0.3,0.4-0.5c0.1-0.2,0.2-0.4,0.2-0.6c0-0.2,0-0.4,0-0.6c-0.1-0.5-0.5-0.8-0.9-1.1l-2.5-1.6
			l0.5-0.8l4.5,2.9l-0.5,0.8l-0.7-0.4c0.1,0.3,0.2,0.6,0.2,1c-0.1,0.3-0.2,0.7-0.4,1C32.3,52.3,31.9,52.7,31.3,52.9z" />
            <path class="st1" d="M25.8,57.7l2-3.8c-0.2-0.2-0.4-0.2-0.6-0.2c-0.2,0-0.5,0-0.7,0.1c-0.4,0.2-0.8,0.5-1,0.9
			c-0.2,0.3-0.2,0.7-0.2,1s0.2,0.6,0.4,0.8l-0.4,0.9c-0.4-0.4-0.7-0.8-0.7-1.4c-0.1-0.6,0-1.2,0.3-1.7c0.2-0.4,0.5-0.8,0.9-1.1
			c0.4-0.3,0.9-0.4,1.3-0.4c0.5,0,1,0.1,1.5,0.4c0.5,0.3,0.9,0.6,1.2,1c0.3,0.4,0.4,0.8,0.4,1.3s-0.1,1-0.3,1.4
			c-0.2,0.4-0.5,0.8-0.9,1.1c-0.4,0.2-0.8,0.4-1.2,0.4c-0.5,0-0.9-0.1-1.4-0.3C26.2,57.9,26,57.8,25.8,57.7z M27.7,57.4
			c0.3,0,0.6-0.1,0.8-0.3c0.2-0.2,0.4-0.4,0.6-0.7c0.2-0.4,0.3-0.8,0.1-1.2c-0.1-0.2-0.2-0.4-0.3-0.6c-0.1-0.2-0.3-0.3-0.5-0.4
			l-1.6,3C27.2,57.4,27.5,57.4,27.7,57.4L27.7,57.4z" />
            <path class="st1" d="M23.9,59.3l-2-2.1l0.2-0.6l2.1,1.7L23.9,59.3z" />
            <path class="st1" d="M25.2,67.8c-0.3,0.3-0.6,0.5-1,0.5c-0.4,0.1-0.9,0-1.3-0.1l-3-1l0.3-0.9l2.9,0.9c0.4,0.2,0.9,0.2,1.3,0
			c0.2-0.1,0.3-0.2,0.5-0.4c0.1-0.2,0.2-0.4,0.3-0.6c0.1-0.2,0.1-0.4,0.1-0.6c0-0.2-0.1-0.4-0.2-0.6c-0.1-0.2-0.3-0.4-0.5-0.5
			c-0.2-0.1-0.4-0.2-0.6-0.3l-2.8-0.9l0.3-0.9l6.9,2.1l-0.3,0.9L25.4,65c0.2,0.3,0.4,0.6,0.4,0.9c0.1,0.4,0,0.7-0.1,1.1
			C25.6,67.2,25.4,67.5,25.2,67.8z" />
            <path class="st1" d="M23.4,69.9c0.4,0.3,0.6,0.7,0.8,1.1c0.2,0.4,0.2,0.9,0.1,1.4c-0.1,0.4-0.3,0.9-0.6,1.2
			c-0.2,0.3-0.6,0.5-0.9,0.6l1,0.2l-0.2,1l-5.3-1.1l0.2-0.9l1,0.2c-0.3-0.3-0.5-0.6-0.6-0.9c-0.1-0.4-0.2-0.9-0.1-1.3
			c0.1-0.4,0.3-0.9,0.6-1.2c0.3-0.3,0.7-0.6,1.2-0.7c0.5-0.1,1-0.1,1.5,0C22.7,69.5,23.1,69.6,23.4,69.9z M22.3,73.7
			c0.3-0.1,0.6-0.3,0.8-0.5c0.2-0.3,0.4-0.6,0.4-0.9c0.1-0.3,0.1-0.6,0-1c-0.1-0.3-0.3-0.6-0.6-0.8c-0.3-0.2-0.6-0.4-1-0.5
			c-0.4-0.1-0.8-0.1-1.1,0c-0.3,0.1-0.6,0.3-0.8,0.5c-0.2,0.2-0.4,0.5-0.4,0.9c-0.1,0.3-0.1,0.6,0,1c0.1,0.3,0.3,0.6,0.6,0.8
			s0.6,0.4,1,0.5C21.6,73.8,22,73.8,22.3,73.7L22.3,73.7z" />
            <path class="st1" d="M23.1,78.2c0.2,0.4,0.2,0.8,0.2,1.3c0,0.5-0.2,0.9-0.5,1.3c-0.3,0.4-0.6,0.7-1.1,0.8c-0.5,0.2-1,0.3-1.5,0.2
			c-0.5,0-1-0.2-1.4-0.5c-0.4-0.2-0.7-0.6-0.9-1s-0.3-0.9-0.2-1.4c0-0.4,0.2-0.8,0.4-1.2c0.2-0.3,0.5-0.6,0.9-0.7l-3.5-0.3l0.1-0.9
			l7.9,0.8l-0.1,0.9l-1-0.1C22.7,77.5,23,77.8,23.1,78.2z M21.5,80.6c0.3-0.1,0.6-0.3,0.8-0.6s0.3-0.6,0.3-0.9s0-0.6-0.2-0.9
			c-0.1-0.3-0.4-0.6-0.6-0.7c-0.3-0.2-0.7-0.3-1-0.4c-0.4,0-0.8,0-1.1,0.2c-0.3,0.1-0.6,0.3-0.8,0.6c-0.3,0.2-0.4,0.5-0.4,0.9
			c0,0.3,0,0.7,0.2,1c0.1,0.3,0.4,0.6,0.6,0.7c0.3,0.2,0.7,0.3,1.1,0.4C20.7,80.8,21.1,80.8,21.5,80.6z" />
            <path class="st1" d="M22.7,84.7c0.2,0.4,0.3,0.8,0.3,1.2c0,0.5-0.1,0.9-0.3,1.3c-0.2,0.4-0.6,0.7-1,0.9c-0.5,0.2-1,0.3-1.5,0.3
			c-0.5,0-1-0.1-1.5-0.3c-0.4-0.2-0.8-0.5-1-0.9c-0.2-0.4-0.4-0.9-0.4-1.3c0-0.4,0.1-0.8,0.3-1.2c0.2-0.3,0.4-0.6,0.8-0.8L14.9,84
			v-1l7.8-0.1v0.9h-1C22.2,84,22.5,84.3,22.7,84.7z M21.4,87.3c0.3-0.2,0.5-0.4,0.7-0.7c0.2-0.3,0.2-0.6,0.2-0.9s-0.1-0.6-0.3-0.9
			c-0.2-0.3-0.4-0.5-0.7-0.7C21,84,20.6,84,20.2,84s-0.7,0-1.1,0.1c-0.3,0.2-0.5,0.4-0.7,0.7c-0.2,0.3-0.2,0.6-0.2,0.9
			s0.1,0.6,0.3,0.9s0.4,0.5,0.7,0.7c0.3,0.2,0.7,0.2,1.1,0.2C20.7,87.5,21,87.4,21.4,87.3L21.4,87.3z" />
            <path class="st1" d="M23.5,94l-8.2-2.4l-0.1-0.9l2.6,0.8l5.1-2.7l0.1,1L19,91.8l4.5,1.2L23.5,94z" />
            <path class="st1" d="M23.6,98.6l-3.1,0.7c-0.1,0-0.2,0-0.3,0.1c-0.1,0-0.2,0.1-0.2,0.2c-0.1,0.2-0.1,0.4,0,0.6l0.1,0.7l-0.8,0.2
			l-0.2-0.8c-0.1-0.4-0.1-0.8,0.1-1.2c0.1-0.2,0.3-0.3,0.5-0.4c0.2-0.1,0.4-0.2,0.6-0.2l3.1-0.7l-0.2-0.7l0.7-0.2l0.2,0.7l1.3-0.3
			l0.2,0.9l-1.2,0.3l0.3,1.4L24,100L23.6,98.6z" />
            <path class="st1" d="M20.3,103.2c0.1-0.5,0.3-0.9,0.7-1.2c0.4-0.4,0.8-0.6,1.3-0.8c0.5-0.2,1-0.2,1.5-0.1c0.5,0.1,0.9,0.3,1.2,0.7
			c0.3,0.4,0.6,0.8,0.7,1.3c0.1,0.5,0.2,1,0.1,1.5c-0.1,0.5-0.3,0.9-0.6,1.2c-0.4,0.4-0.8,0.6-1.3,0.8c-0.5,0.2-1,0.2-1.5,0.1
			c-0.5-0.1-0.9-0.4-1.2-0.7c-0.3-0.3-0.6-0.7-0.7-1.2C20.2,104.1,20.2,103.7,20.3,103.2z M21.6,105.2c0.2,0.2,0.5,0.4,0.9,0.5
			c0.4,0.1,0.8,0.1,1.2-0.1c0.4-0.1,0.7-0.3,1-0.6c0.2-0.2,0.4-0.5,0.5-0.9c0.1-0.3,0.1-0.6,0-0.9c-0.1-0.3-0.3-0.6-0.5-0.8
			c-0.2-0.2-0.5-0.4-0.9-0.4c-0.4-0.1-0.8,0-1.1,0.1c-0.4,0.1-0.7,0.3-1,0.6c-0.2,0.2-0.4,0.5-0.5,0.8c-0.1,0.3-0.1,0.6,0,0.9
			C21.3,104.6,21.4,104.9,21.6,105.2z" />
            <path class="st1" d="M23.3,112c0-0.3,0.1-0.7,0.2-1c0.1-0.3,0.4-0.5,0.7-0.7l0.4,0.9c-0.1,0.1-0.2,0.2-0.3,0.3
			c-0.1,0.1-0.1,0.2-0.2,0.4c-0.1,0.3,0,0.6,0.1,0.9s0.3,0.5,0.6,0.7c0.1,0,0.2,0.1,0.3,0.1c0.1,0,0.2,0,0.3-0.1
			c0.1,0,0.2-0.1,0.3-0.2c0.1-0.1,0.1-0.2,0.1-0.3c0-0.3,0-0.7-0.1-1c-0.1-0.3-0.1-0.7-0.1-1s0.1-0.6,0.2-0.8
			c0.1-0.3,0.4-0.5,0.6-0.6c0.2-0.1,0.6-0.2,0.8-0.1c0.3,0.1,0.6,0.2,0.8,0.4c0.3,0.2,0.5,0.5,0.6,0.9c0.2,0.5,0.3,1,0.2,1.5
			c-0.1,0.2-0.2,0.5-0.3,0.6c-0.2,0.2-0.4,0.3-0.6,0.4l-0.3-0.8c0.1-0.1,0.2-0.1,0.3-0.2c0.1-0.1,0.1-0.2,0.2-0.4
			c0.1-0.3,0-0.6-0.1-0.9s-0.3-0.5-0.5-0.6c-0.1-0.1-0.2-0.1-0.3-0.1c-0.1,0-0.2,0-0.3,0.1c-0.1,0-0.1,0.1-0.2,0.1
			c-0.1,0.1-0.1,0.1-0.1,0.2c-0.1,0.2-0.1,0.3-0.1,0.5c0,0.3,0,0.5,0.1,0.8c0.1,0.3,0.1,0.7,0.1,1s0,0.5-0.2,0.8
			c-0.1,0.3-0.4,0.5-0.6,0.6c-0.3,0.1-0.6,0.2-0.9,0.1c-0.3-0.1-0.6-0.2-0.8-0.4c-0.3-0.2-0.5-0.5-0.6-0.9
			C23.4,112.7,23.4,112.4,23.3,112z" />
            <path class="st1" d="M29.6,119.3l-2.1-3.7c-0.2,0.1-0.4,0.3-0.5,0.4c-0.1,0.2-0.2,0.4-0.3,0.6c-0.1,0.2-0.1,0.5,0,0.7
			c0,0.2,0.1,0.4,0.2,0.6c0.2,0.3,0.4,0.6,0.7,0.7c0.3,0.1,0.6,0.2,0.9,0.1l0.5,0.9c-0.5,0.1-1.1,0.1-1.5-0.1
			c-0.5-0.3-0.9-0.7-1.2-1.2c-0.2-0.4-0.4-0.9-0.4-1.4c0-0.5,0.1-0.9,0.4-1.3s0.7-0.8,1.1-1c0.5-0.3,1-0.4,1.5-0.4
			c0.5,0,0.9,0.1,1.3,0.3c0.4,0.3,0.8,0.6,1,1.1c0.2,0.4,0.4,0.9,0.4,1.4c0,0.4-0.1,0.8-0.3,1.2c-0.3,0.4-0.6,0.7-1,0.9L29.6,119.3z
			 M30.5,117.5c0.1-0.3,0.2-0.5,0.2-0.8s-0.1-0.6-0.3-0.9c-0.2-0.4-0.6-0.7-1-0.8c-0.4-0.1-0.9-0.1-1.3,0.1l1.8,2.9
			C30.1,118,30.4,117.8,30.5,117.5z" />
            <path class="st1" d="M33.2,124.4l-2.4-3.5c-0.4,0.3-0.6,0.7-0.7,1.1c-0.1,0.4,0,0.9,0.3,1.3c0.2,0.3,0.5,0.5,0.8,0.7
			c0.3,0.1,0.6,0.1,0.9,0l0.6,0.8c-0.5,0.2-1.1,0.2-1.6,0c-0.6-0.2-1-0.6-1.3-1.1c-0.3-0.4-0.5-0.9-0.5-1.3c0-0.5,0-0.9,0.3-1.4
			c0.2-0.5,0.6-0.9,1-1.2c0.4-0.3,0.9-0.5,1.4-0.6c0.5-0.1,0.9,0,1.4,0.2c0.4,0.2,0.8,0.5,1.1,1c0.3,0.4,0.5,0.8,0.5,1.3
			c0,0.4,0,0.9-0.2,1.3c-0.2,0.4-0.5,0.8-0.9,1C33.5,124.2,33.3,124.3,33.2,124.4z M33.8,122.6c0.1-0.3,0.2-0.6,0.1-0.8
			c-0.1-0.3-0.2-0.6-0.3-0.8c-0.2-0.4-0.6-0.6-1-0.7c-0.5-0.1-0.9,0-1.3,0.2l2,2.7C33.5,123.1,33.7,122.8,33.8,122.6z" />
            <path class="st1" d="M41.1,128.9l-8,2.9l-0.6-0.7l2.6-1l2.4-5.2l0.7,0.7l-2.1,4.3l4.3-1.8L41.1,128.9z" />
            <path class="st1" d="M39,133.9c-0.2-0.5-0.2-0.9-0.1-1.4c0.1-0.5,0.4-1,0.7-1.3c0.3-0.4,0.7-0.7,1.2-0.9c0.5-0.1,0.9-0.1,1.4,0
			c0.5,0.1,0.9,0.4,1.3,0.7c0.4,0.3,0.6,0.7,0.8,1.2c0.2,0.4,0.2,0.9,0.1,1.4c-0.1,0.5-0.4,1-0.7,1.4c-0.3,0.4-0.8,0.7-1.3,0.9
			c-0.5,0.1-1,0.1-1.4,0c-0.5-0.1-0.9-0.4-1.3-0.7C39.4,134.7,39.1,134.3,39,133.9z M41,134.9c0.3,0.1,0.7,0.1,1,0
			c0.4-0.1,0.7-0.4,0.9-0.6c0.3-0.3,0.5-0.6,0.6-1c0.1-0.3,0.1-0.7,0-1c-0.1-0.3-0.3-0.6-0.5-0.8c-0.2-0.2-0.5-0.4-0.8-0.4
			c-0.3-0.1-0.6-0.1-1,0c-0.4,0.1-0.7,0.4-0.9,0.7c-0.3,0.3-0.5,0.6-0.6,1c-0.1,0.3-0.1,0.6,0,0.9c0.1,0.3,0.3,0.6,0.5,0.8
			C40.5,134.7,40.7,134.8,41,134.9z" />
            <path class="st1" d="M50.1,136.3l-3.2,4.4l-0.7-0.5l0.5-0.7c-0.3,0.1-0.6,0.2-1,0.1c-0.4-0.1-0.7-0.2-1-0.4
			c-0.3-0.2-0.6-0.5-0.8-0.9c-0.2-0.3-0.2-0.7-0.2-1.1c0.1-0.4,0.3-0.9,0.5-1.2l1.9-2.5l0.7,0.5l-1.9,2.4c-0.3,0.3-0.4,0.8-0.4,1.2
			c0,0.2,0.1,0.4,0.2,0.6c0.1,0.2,0.3,0.3,0.4,0.4c0.2,0.1,0.4,0.2,0.6,0.3c0.2,0.1,0.4,0.1,0.6,0c0.5-0.1,0.9-0.4,1.1-0.8l1.8-2.3
			L50.1,136.3z" />
            <path class="st1" d="M56.7,140.4c0.2,0.3,0.3,0.7,0.3,1.1s-0.1,0.9-0.4,1.3l-1.5,2.8l-0.8-0.4l1.5-2.6c0.2-0.4,0.3-0.8,0.2-1.3
			c-0.1-0.2-0.2-0.4-0.3-0.5c-0.1-0.2-0.3-0.3-0.5-0.4s-0.4-0.2-0.6-0.2c-0.2,0-0.4,0-0.6,0.1c-0.4,0.2-0.8,0.5-1,1l-1.4,2.6
			l-0.8-0.4l3.4-6.4l0.8,0.4l-1.3,2.3c0.3-0.2,0.6-0.2,1-0.2c0.4,0,0.7,0.1,1,0.3C56.2,139.8,56.5,140.1,56.7,140.4z" />
            <path class="st1" d="M62.2,146l-4-1.7c-0.2,0.4-0.2,0.9,0,1.4c0.2,0.4,0.5,0.7,1,0.9c0.3,0.1,0.7,0.2,1,0.1s0.6-0.2,0.8-0.5
			l0.9,0.4c-0.3,0.4-0.8,0.7-1.3,0.8c-0.6,0.1-1.2,0.1-1.7-0.2c-0.5-0.2-0.9-0.5-1.2-0.9s-0.5-0.8-0.5-1.3c0-0.5,0.1-1,0.3-1.5
			c0.2-0.5,0.5-0.9,0.9-1.2c0.4-0.3,0.8-0.5,1.3-0.5s1,0,1.4,0.2c0.4,0.2,0.8,0.5,1.1,0.9c0.3,0.3,0.4,0.8,0.5,1.2
			c0,0.5,0,0.9-0.2,1.4L62.2,146z M61.7,144.1c0-0.3-0.2-0.6-0.4-0.8c-0.2-0.2-0.5-0.4-0.7-0.5c-0.4-0.2-0.9-0.2-1.3,0
			s-0.8,0.5-1,0.9l3.1,1.3C61.7,144.7,61.8,144.4,61.7,144.1z" />
            <path class="st1" d="M65.9,144.2c0.4-0.1,0.8,0,1.1,0.1l-0.3,0.9l-0.2-0.1c-1-0.3-1.6,0-2,1.1l-0.9,2.7l-0.9-0.3l1.7-5.1l0.9,0.3
			l-0.3,0.9C65.3,144.4,65.6,144.2,65.9,144.2z" />
            <path class="st1" d="M71.8,148.7l-4.2-1c-0.1,0.2-0.1,0.5,0,0.7c0,0.2,0.1,0.5,0.3,0.7c0.3,0.4,0.6,0.6,1.1,0.7
			c0.3,0.1,0.7,0.1,1,0c0.3-0.1,0.5-0.3,0.7-0.6l1,0.2c-0.3,0.5-0.7,0.8-1.2,1c-0.5,0.2-1.2,0.2-1.7,0.1c-0.5-0.1-0.9-0.3-1.3-0.7
			c-0.3-0.3-0.6-0.7-0.7-1.2c-0.1-0.5-0.1-1,0-1.5c0.1-0.5,0.3-1,0.7-1.4c0.3-0.4,0.7-0.6,1.2-0.7c0.5-0.1,1-0.1,1.5,0
			c0.4,0.1,0.9,0.3,1.2,0.7c0.3,0.3,0.6,0.7,0.7,1.1c0.1,0.5,0.1,0.9,0,1.4C71.9,148.4,71.9,148.6,71.8,148.7z M71.1,146.9
			c-0.1-0.3-0.3-0.5-0.5-0.7c-0.2-0.2-0.5-0.3-0.8-0.4c-0.4-0.1-0.8,0-1.2,0.1c-0.4,0.2-0.7,0.6-0.8,1.1l3.3,0.8
			C71.2,147.5,71.2,147.2,71.1,146.9z" />
            <path class="st1" d="M73,151.1c-0.1-0.1-0.1-0.3-0.1-0.5c0-0.2,0.1-0.3,0.3-0.4c0.1,0,0.1-0.1,0.2-0.1c0.1,0,0.2,0,0.2,0
			c0.2,0,0.3,0.1,0.4,0.3c0.1,0.1,0.1,0.3,0.1,0.5c0,0.2-0.1,0.3-0.3,0.4c-0.1,0-0.1,0.1-0.2,0.1s-0.2,0-0.2,0c-0.1,0-0.2,0-0.2-0.1
			C73.1,151.3,73.1,151.2,73,151.1z M75,144.7l-0.9,4.8l-0.8-0.1l0.7-4.9L75,144.7z" />
            <path class="st1" d="M82.7,148.4v0.8l-3.9-0.3v-0.8L82.7,148.4z" />
            <path class="st1"
                d="M92,145.2l0.5,6.8l-0.9,0.1l-0.2-3.1l-3.5,0.3l0.2,3.1h-0.9l-0.5-6.7h0.9l0.2,3l3.5-0.3l-0.2-3L92,145.2z" />
            <path class="st1" d="M98.8,148.6l-4.2,0.8c0,0.2,0.1,0.4,0.3,0.6c0.1,0.2,0.3,0.4,0.5,0.5c0.2,0.1,0.4,0.2,0.6,0.3
			c0.2,0,0.5,0,0.7,0c0.3-0.1,0.7-0.2,0.9-0.4c0.2-0.2,0.4-0.5,0.4-0.8l1-0.2c-0.1,0.5-0.3,1-0.6,1.4c-0.4,0.4-1,0.7-1.5,0.8
			c-0.5,0.1-1,0.1-1.4-0.1c-0.4-0.2-0.8-0.4-1.1-0.8c-0.3-0.4-0.5-0.9-0.6-1.4c-0.1-0.5-0.1-1,0.1-1.5c0.1-0.5,0.4-0.9,0.8-1.2
			s0.8-0.5,1.3-0.6c0.5-0.1,1-0.1,1.4,0.1c0.4,0.1,0.8,0.4,1.1,0.8c0.3,0.4,0.5,0.8,0.6,1.3C98.8,148.2,98.8,148.4,98.8,148.6z
			 M97.4,147.2c-0.2-0.2-0.5-0.4-0.7-0.4c-0.3-0.1-0.6-0.1-0.9,0c-0.2,0-0.4,0.1-0.6,0.2s-0.3,0.3-0.5,0.4c-0.1,0.2-0.2,0.4-0.3,0.6
			c-0.1,0.2-0.1,0.5,0,0.7l3.3-0.6C97.7,147.7,97.6,147.4,97.4,147.2z" />
            <path class="st1" d="M99.8,143.2l1.8,7l-0.9,0.2l-1.8-7L99.8,143.2z" />
            <path class="st1" d="M102,142.6l2,6.9l-0.9,0.3l-2-6.9L102,142.6z" />
            <path class="st1" d="M106.5,148.5c-0.5-0.1-0.9-0.3-1.3-0.6s-0.7-0.8-0.8-1.3c-0.2-0.5-0.2-1-0.2-1.5c0.1-0.5,0.3-0.9,0.6-1.3
			c0.3-0.4,0.7-0.6,1.2-0.8c0.5-0.2,1-0.2,1.4-0.2c0.5,0.1,0.9,0.3,1.3,0.6c0.4,0.4,0.7,0.8,0.9,1.3c0.2,0.5,0.2,1,0.2,1.5
			c-0.1,0.5-0.3,0.9-0.6,1.3c-0.3,0.4-0.7,0.6-1.2,0.8C107.5,148.6,107,148.6,106.5,148.5z M108.4,147.1c0.2-0.3,0.4-0.6,0.4-0.9
			c0.1-0.4,0-0.8-0.1-1.2c-0.1-0.4-0.3-0.7-0.6-1c-0.2-0.2-0.5-0.4-0.9-0.4c-0.3,0-0.6,0-0.9,0.1c-0.3,0.1-0.6,0.3-0.8,0.5
			s-0.4,0.5-0.4,0.9c-0.1,0.4,0,0.8,0.2,1.2c0.1,0.4,0.3,0.7,0.6,1c0.2,0.2,0.5,0.4,0.9,0.4c0.3,0,0.6,0,0.9-0.1
			C108,147.5,108.2,147.4,108.4,147.1L108.4,147.1z" />
            <path class="st1" d="M117.6,141.3l-3.8,2.1c0.2,0.4,0.6,0.7,1.1,0.9c0.4,0.1,0.9,0,1.3-0.2c0.3-0.2,0.6-0.4,0.7-0.7
			c0.2-0.3,0.2-0.6,0.2-0.9l0.9-0.5c0.1,0.5,0.1,1.1-0.2,1.5c-0.3,0.5-0.7,0.9-1.2,1.2c-0.4,0.2-0.9,0.4-1.4,0.3
			c-0.5,0-0.9-0.2-1.3-0.4c-0.4-0.3-0.8-0.7-1-1.2c-0.2-0.5-0.4-1-0.4-1.5c0-0.5,0.1-0.9,0.4-1.3c0.3-0.4,0.6-0.7,1.1-1
			c0.4-0.2,0.9-0.4,1.4-0.3c0.4,0,0.9,0.1,1.3,0.4c0.4,0.3,0.7,0.6,0.9,1C117.5,140.9,117.6,141.1,117.6,141.3z M116,140.4
			c-0.2-0.2-0.5-0.2-0.8-0.2s-0.6,0.1-0.9,0.2c-0.4,0.2-0.7,0.5-0.8,0.9c-0.2,0.4-0.1,0.9,0.1,1.3l3-1.6
			C116.4,140.8,116.2,140.5,116,140.4z" />
            <path class="st1" d="M121.3,140.7l-1.1-4.7l0.8-0.5l1.2,5.7l-0.9,0.6l-4.7-3.3l0.8-0.5L121.3,140.7z" />
            <path class="st1" d="M127.3,134.3L124,137c0.1,0.2,0.3,0.3,0.5,0.4s0.4,0.2,0.7,0.2c0.4,0,0.9-0.1,1.2-0.4
			c0.3-0.2,0.5-0.5,0.6-0.8s0.1-0.6,0-0.9l0.8-0.6c0.2,0.5,0.2,1,0.1,1.6c-0.2,0.5-0.5,1-0.9,1.3c-0.4,0.4-0.9,0.6-1.4,0.7
			c-0.5,0.1-0.9,0-1.4-0.2c-0.5-0.2-0.9-0.5-1.2-1c-0.3-0.4-0.6-0.9-0.7-1.4c-0.1-0.5,0-0.9,0.1-1.4c0.2-0.5,0.5-0.9,0.9-1.2
			c0.4-0.3,0.8-0.5,1.3-0.6c0.4-0.1,0.9,0,1.3,0.2c0.4,0.2,0.8,0.5,1.1,0.9C127.1,134,127.2,134.1,127.3,134.3z M125.4,133.8
			c-0.3-0.1-0.6-0.1-0.9-0.1c-0.3,0.1-0.6,0.2-0.8,0.4c-0.3,0.3-0.6,0.7-0.6,1.1c-0.1,0.5,0.1,0.9,0.3,1.3l2.6-2.1
			C126,134,125.7,133.9,125.4,133.8z" />
            <path class="st1"
                d="M127.5,130.2c0.1-0.4,0.3-0.7,0.6-0.9l0.6,0.7l-0.2,0.2c-0.2,0.1-0.3,0.3-0.4,0.5c-0.1,0.2-0.1,0.4-0.1,0.6
			c0,0.2,0.1,0.4,0.1,0.6c0.1,0.2,0.2,0.4,0.4,0.5l2,2.1l-0.7,0.6l-3.6-3.9l0.7-0.6l0.6,0.6C127.4,130.9,127.4,130.5,127.5,130.2z" />
            <path class="st1" d="M132,125.4l3.5,7.7l-0.6,0.7l-1.2-2.5l-5.3-2.1l0.7-0.7l4.3,1.8l-2.1-4.2L132,125.4z" />
            <path class="st1" d="M137.2,127.1c-0.4,0.2-0.9,0.2-1.4,0.2c-0.5-0.1-1-0.3-1.4-0.6c-0.4-0.3-0.8-0.7-1-1.2
			c-0.2-0.4-0.3-0.9-0.2-1.4c0.1-0.5,0.3-0.9,0.6-1.3s0.7-0.7,1.1-0.9c0.4-0.2,0.9-0.2,1.4-0.2c0.5,0.1,1,0.3,1.4,0.6
			c0.4,0.3,0.8,0.7,1,1.2c0.2,0.4,0.2,0.9,0.2,1.4c-0.1,0.5-0.3,1-0.6,1.3C138,126.6,137.6,126.9,137.2,127.1z M138.1,125
			c0.1-0.3,0-0.7-0.1-1c-0.2-0.3-0.4-0.7-0.7-0.9s-0.7-0.4-1-0.5s-0.7,0-1,0.1s-0.6,0.3-0.7,0.6c-0.2,0.3-0.3,0.5-0.4,0.9
			c0,0.3,0,0.7,0.1,0.9c0.2,0.4,0.4,0.7,0.7,0.9s0.7,0.4,1,0.5s0.6,0,0.9-0.1c0.3-0.1,0.5-0.3,0.7-0.6
			C137.9,125.5,138,125.3,138.1,125z" />
            <path class="st1" d="M138.9,116.7c0.3-0.1,0.6-0.1,0.9,0c0.3,0.1,0.6,0.2,0.9,0.4l2.6,1.7l-0.5,0.8l-2.5-1.6
			c-0.2-0.1-0.4-0.2-0.6-0.3c-0.2-0.1-0.4-0.1-0.7,0c-0.2,0-0.4,0.1-0.6,0.3c-0.2,0.1-0.3,0.3-0.4,0.5c-0.1,0.2-0.2,0.4-0.2,0.6
			c0,0.2,0,0.4,0,0.6c0.1,0.5,0.5,0.8,0.9,1.1l2.5,1.6l-0.5,0.8l-4.6-2.8l0.5-0.8l0.7,0.4c-0.1-0.3-0.2-0.6-0.2-1
			c0-0.4,0.2-0.7,0.4-1c0.1-0.3,0.3-0.5,0.6-0.7C138.3,116.9,138.6,116.7,138.9,116.7z" />
            <path class="st1"
                d="M144.3,111.6l-2,3.8c0.4,0.2,0.9,0.2,1.4,0c0.4-0.2,0.8-0.5,0.9-0.9c0.2-0.3,0.2-0.7,0.2-1
			c0-0.3-0.2-0.6-0.4-0.8l0.4-0.9c0.4,0.4,0.7,0.8,0.8,1.4c0.1,0.6,0,1.2-0.3,1.7c-0.2,0.4-0.5,0.8-0.9,1.1
			c-0.4,0.3-0.9,0.4-1.3,0.4c-0.5,0-1-0.1-1.5-0.4c-0.5-0.2-0.9-0.5-1.2-1c-0.3-0.3-0.4-0.8-0.5-1.2c0-0.5,0.1-1,0.3-1.4
			s0.5-0.8,0.9-1.1c0.4-0.2,0.8-0.4,1.2-0.4c0.5,0,0.9,0.1,1.4,0.3L144.3,111.6z M142.4,111.9c-0.3,0-0.6,0.1-0.8,0.3
			c-0.2,0.2-0.4,0.4-0.6,0.7c-0.2,0.4-0.2,0.8-0.1,1.2c0.1,0.4,0.4,0.8,0.9,1l1.5-3C143,112,142.7,111.9,142.4,111.9L142.4,111.9z" />
            <path class="st1" d="M146.2,110l2.1,2.1l-0.2,0.6l-2.1-1.7L146.2,110z" />
            <path class="st1" d="M144.9,101.6c0.3-0.3,0.6-0.5,1-0.5c0.4-0.1,0.9,0,1.3,0.1l3,0.9l-0.3,0.9l-2.9-0.9c-0.4-0.2-0.9-0.2-1.3,0
			c-0.2,0.1-0.3,0.2-0.5,0.4c-0.1,0.2-0.2,0.4-0.3,0.6c-0.1,0.2-0.1,0.4-0.1,0.6c0,0.2,0.1,0.4,0.2,0.6c0.3,0.4,0.7,0.7,1.1,0.8
			l2.8,0.9l-0.3,0.9l-6.9-2.1l0.3-0.9l2.5,0.8c-0.2-0.3-0.4-0.6-0.4-0.9c-0.1-0.4,0-0.7,0.1-1.1
			C144.4,102.2,144.6,101.8,144.9,101.6z" />
            <path class="st1" d="M146.6,99.5c-0.4-0.3-0.6-0.7-0.8-1.1s-0.2-0.9-0.1-1.4c0.1-0.4,0.3-0.9,0.5-1.2c0.2-0.3,0.6-0.5,0.9-0.6
			l-1-0.2l0.2-0.9l5.3,1l-0.2,0.9l-1-0.2c0.3,0.3,0.5,0.6,0.6,0.9c0.1,0.4,0.2,0.9,0.1,1.3c-0.1,0.4-0.3,0.9-0.6,1.2
			c-0.3,0.4-0.7,0.6-1.2,0.7c-0.5,0.1-1,0.1-1.5,0C147.4,99.9,146.9,99.8,146.6,99.5z M147.7,95.6c-0.3,0.1-0.6,0.3-0.8,0.5
			c-0.2,0.2-0.4,0.6-0.4,0.9c-0.1,0.3-0.1,0.6,0,1c0.1,0.3,0.3,0.6,0.6,0.8c0.3,0.2,0.7,0.4,1,0.4c0.4,0.1,0.8,0.1,1.1,0
			c0.3-0.1,0.6-0.3,0.8-0.5c0.2-0.2,0.4-0.5,0.4-0.9c0.1-0.3,0-0.7-0.1-1s-0.3-0.6-0.6-0.8s-0.6-0.4-1-0.4
			C148.4,95.6,148,95.6,147.7,95.6L147.7,95.6z" />
            <path class="st1" d="M146.8,91.2c-0.2-0.4-0.2-0.8-0.2-1.2c0-0.5,0.2-0.9,0.5-1.3c0.3-0.4,0.6-0.7,1.1-0.9c0.5-0.2,1-0.3,1.5-0.2
			c0.5,0,1,0.2,1.5,0.5c0.4,0.2,0.7,0.6,0.9,1s0.3,0.9,0.2,1.3c0,0.4-0.2,0.8-0.4,1.2c-0.2,0.3-0.5,0.6-0.9,0.7l3.5,0.3l-0.1,0.9
			l-7.9-0.7l0.1-0.9l1,0.1C147.2,91.8,147,91.5,146.8,91.2z M148.4,88.7c-0.3,0.1-0.6,0.3-0.8,0.6c-0.2,0.3-0.3,0.6-0.3,0.9
			s0,0.7,0.2,1c0.1,0.3,0.4,0.5,0.6,0.7c0.3,0.2,0.7,0.3,1.1,0.3s0.8,0,1.1-0.2c0.3-0.1,0.6-0.3,0.8-0.6c0.2-0.3,0.3-0.6,0.3-0.9
			s0-0.7-0.2-1c-0.1-0.3-0.4-0.6-0.6-0.7c-0.3-0.2-0.7-0.3-1.1-0.3C149.2,88.5,148.8,88.5,148.4,88.7z" />
            <path class="st1" d="M147.1,84.7c-0.2-0.4-0.3-0.8-0.3-1.2c0-0.5,0.1-0.9,0.3-1.3s0.6-0.7,1-0.9c0.5-0.2,1-0.4,1.5-0.4
			c0.5,0,1,0.1,1.5,0.3c0.4,0.2,0.8,0.5,1,0.9c0.2,0.4,0.4,0.9,0.4,1.3c0,0.4-0.1,0.8-0.3,1.2c-0.2,0.3-0.4,0.6-0.8,0.8l3.5-0.1v0.9
			l-7.9,0.2v-0.9h1C147.6,85.3,147.3,85,147.1,84.7z M148.5,82.1c-0.3,0.2-0.5,0.4-0.7,0.7c-0.2,0.3-0.2,0.6-0.2,0.9
			s0.1,0.6,0.3,0.9c0.2,0.3,0.4,0.5,0.7,0.7c0.3,0.2,0.7,0.2,1.1,0.2c0.4,0,0.8-0.1,1.1-0.3c0.3-0.2,0.5-0.4,0.7-0.7
			c0.2-0.3,0.2-0.6,0.2-0.9s-0.1-0.7-0.3-0.9c-0.2-0.3-0.4-0.5-0.7-0.7c-0.3-0.2-0.7-0.2-1.1-0.2C149.2,81.8,148.8,81.9,148.5,82.1
			L148.5,82.1z" />
            <path class="st1" d="M146.3,75.3l8.2,2.3l0.1,0.9l-2.7-0.8l-5,2.7l-0.1-1l4.1-2.1l-4.5-1.2L146.3,75.3z" />
            <path class="st1" d="M146.1,70.7l3.1-0.7c0.1,0,0.2,0,0.3-0.1s0.2-0.1,0.2-0.2c0.1-0.2,0.1-0.4,0-0.6l-0.2-0.6l0.8-0.2l0.2,0.8
			c0.1,0.4,0.1,0.8-0.1,1.2c-0.1,0.2-0.3,0.3-0.4,0.4c-0.2,0.1-0.4,0.2-0.6,0.2l-3.1,0.7l0.2,0.7l-0.7,0.2l-0.2-0.7l-1.3,0.3
			l-0.2-0.9l1.4-0.3l-0.3-1.4l0.7-0.2L146.1,70.7z" />
            <path class="st1" d="M149.4,66.1c-0.1,0.5-0.3,0.9-0.6,1.2c-0.4,0.4-0.8,0.6-1.3,0.8c-0.5,0.2-1,0.3-1.6,0.2
			c-0.5-0.1-0.9-0.3-1.2-0.6c-0.3-0.3-0.6-0.7-0.8-1.2c-0.2-0.5-0.2-1-0.1-1.5c0.1-0.5,0.3-0.9,0.6-1.2c0.4-0.4,0.8-0.7,1.3-0.8
			c0.5-0.2,1-0.2,1.5-0.1c0.5,0.1,0.9,0.3,1.3,0.7c0.3,0.3,0.6,0.7,0.8,1.2C149.5,65.3,149.5,65.7,149.4,66.1z M148,64.2
			c-0.2-0.2-0.5-0.4-0.9-0.5s-0.8-0.1-1.2,0.1c-0.4,0.1-0.7,0.3-1,0.6c-0.2,0.2-0.4,0.5-0.4,0.9c-0.1,0.3,0,0.6,0.1,0.9
			c0.1,0.3,0.3,0.6,0.5,0.8c0.2,0.2,0.5,0.4,0.9,0.4c0.4,0.1,0.8,0,1.2-0.1c0.4-0.1,0.7-0.3,1-0.6c0.2-0.2,0.4-0.5,0.5-0.8
			c0.1-0.3,0.1-0.6,0-0.9C148.5,64.7,148.3,64.4,148,64.2z" />
            <path class="st1" d="M146.3,57.4c0,0.3-0.1,0.7-0.2,1c-0.2,0.3-0.4,0.5-0.7,0.7l-0.4-0.9c0.1-0.1,0.2-0.2,0.3-0.3
			c0.1-0.1,0.1-0.2,0.2-0.4c0.1-0.3,0-0.7-0.2-0.9c-0.1-0.3-0.3-0.5-0.6-0.6c-0.1,0-0.2-0.1-0.3-0.1c-0.1,0-0.2,0-0.3,0.1
			c-0.1,0-0.2,0.1-0.3,0.2c-0.1,0.1-0.1,0.2-0.1,0.3c0,0.4,0,0.7,0.1,1c0.1,0.3,0.1,0.7,0.1,1c0,0.3,0,0.6-0.2,0.8
			c-0.1,0.3-0.4,0.5-0.7,0.6c-0.3,0.1-0.6,0.2-0.9,0.1c-0.3-0.1-0.6-0.2-0.8-0.4c-0.3-0.2-0.5-0.5-0.6-0.9c-0.2-0.5-0.3-1-0.2-1.5
			c0.1-0.2,0.2-0.5,0.3-0.6c0.2-0.2,0.3-0.3,0.6-0.4l0.4,0.8c-0.1,0.1-0.2,0.2-0.3,0.3c-0.1,0.1-0.1,0.2-0.2,0.4
			c-0.1,0.3,0,0.6,0.1,0.9c0.1,0.3,0.3,0.5,0.5,0.6c0.1,0.1,0.2,0.1,0.3,0.1c0.1,0,0.2,0,0.3-0.1c0.1,0,0.1-0.1,0.2-0.1
			c0.1-0.1,0.1-0.1,0.1-0.2c0.1-0.2,0.1-0.3,0.1-0.5s0-0.4-0.1-0.8c-0.1-0.3-0.1-0.7-0.1-1c0-0.3,0-0.5,0.1-0.8
			c0.1-0.3,0.4-0.5,0.6-0.6c0.3-0.1,0.6-0.2,0.8-0.1c0.3,0.1,0.6,0.2,0.8,0.4c0.3,0.2,0.5,0.5,0.6,0.9
			C146.2,56.7,146.3,57.1,146.3,57.4z" />
            <path class="st1" d="M139.9,50.1l2.1,3.7c0.2-0.1,0.4-0.3,0.5-0.5c0.1-0.2,0.2-0.4,0.3-0.6c0.1-0.4,0-0.9-0.2-1.3
			c-0.2-0.3-0.4-0.6-0.7-0.7c-0.3-0.1-0.6-0.2-0.9-0.1l-0.5-0.9c0.5-0.1,1.1-0.1,1.5,0.1c0.5,0.3,0.9,0.7,1.2,1.2
			c0.3,0.4,0.4,0.9,0.4,1.4c0,0.5-0.1,0.9-0.4,1.3c-0.3,0.4-0.7,0.8-1.1,1.1c-0.4,0.3-0.9,0.4-1.5,0.5c-0.5,0-0.9-0.1-1.3-0.3
			c-0.4-0.3-0.8-0.6-1-1.1c-0.3-0.4-0.4-0.9-0.4-1.4c0-0.4,0.1-0.9,0.3-1.3c0.3-0.4,0.6-0.7,1-1L139.9,50.1z M139,51.9
			c-0.1,0.3-0.2,0.5-0.2,0.8s0.1,0.6,0.3,0.9c0.2,0.4,0.6,0.7,1,0.8c0.4,0.1,0.9,0.1,1.3-0.1l-1.7-2.9
			C139.4,51.4,139.2,51.6,139,51.9z" />
            <path class="st1" d="M136.3,45l2.5,3.5c0.2-0.1,0.4-0.3,0.5-0.5c0.1-0.2,0.2-0.4,0.2-0.7c0-0.4-0.1-0.8-0.3-1.2
			c-0.2-0.3-0.5-0.6-0.9-0.8c-0.3-0.1-0.6-0.1-0.9,0l-0.6-0.8c0.5-0.2,1.1-0.2,1.6,0c0.6,0.2,1,0.6,1.4,1c0.3,0.4,0.5,0.9,0.5,1.3
			c0.1,0.4,0,0.9-0.2,1.3c-0.2,0.5-0.6,0.9-1,1.2c-0.4,0.3-0.9,0.5-1.4,0.6c-0.5,0.1-0.9,0-1.4-0.2c-0.4-0.2-0.8-0.6-1.1-1
			c-0.3-0.4-0.5-0.8-0.5-1.3c-0.1-0.4,0-0.9,0.2-1.3c0.2-0.4,0.5-0.8,0.9-1C136,45.2,136.2,45.1,136.3,45z M135.6,46.9
			c-0.1,0.3-0.1,0.6-0.1,0.8c0.1,0.3,0.2,0.6,0.3,0.8c0.2,0.4,0.6,0.6,1,0.7c0.2,0,0.5,0,0.7,0s0.4-0.1,0.6-0.3l-2-2.7
			C136,46.4,135.8,46.6,135.6,46.9z" />
            <path class="st1" d="M128.4,40.6l7.9-3l0.6,0.7l-2.6,1l-2.3,5.2l-0.7-0.7l2.1-4.2l-4.4,1.8L128.4,40.6z" />
            <path class="st1" d="M130.4,35.7c0.2,0.4,0.2,0.9,0.1,1.4c-0.1,0.5-0.4,1-0.7,1.4c-0.3,0.4-0.7,0.7-1.2,0.9
			c-0.5,0.2-0.9,0.2-1.4,0.1c-0.5-0.1-0.9-0.3-1.3-0.7c-0.4-0.3-0.7-0.7-0.8-1.2c-0.2-0.4-0.2-0.9-0.1-1.4c0.1-0.5,0.4-1,0.7-1.4
			c0.3-0.4,0.8-0.7,1.3-0.9c0.4-0.1,0.9-0.2,1.4-0.1c0.5,0.1,0.9,0.4,1.3,0.7C129.9,34.8,130.2,35.2,130.4,35.7z M128.3,34.6
			c-0.3-0.1-0.7-0.1-1,0c-0.4,0.1-0.7,0.4-0.9,0.7c-0.3,0.3-0.5,0.6-0.6,1c-0.1,0.3-0.1,0.7,0.1,1c0.1,0.3,0.3,0.6,0.5,0.8
			c0.2,0.2,0.5,0.4,0.8,0.4c0.3,0.1,0.7,0,1-0.1c0.4-0.2,0.7-0.4,0.9-0.7c0.2-0.3,0.4-0.6,0.6-1c0.1-0.3,0.1-0.6,0-0.9
			c-0.1-0.3-0.3-0.6-0.5-0.8C128.9,34.8,128.6,34.7,128.3,34.6z" />
            <path class="st1"
                d="M119.3,33.3l3.1-4.4l0.7,0.5l-0.5,0.7c0.3-0.1,0.6-0.2,1-0.1c0.4,0.1,0.7,0.2,1,0.4s0.6,0.5,0.8,0.9
			c0.2,0.3,0.2,0.7,0.2,1.1c-0.1,0.4-0.2,0.8-0.5,1.2l-1.9,2.5l-0.7-0.5l1.8-2.4c0.3-0.3,0.4-0.8,0.4-1.2c0-0.2-0.1-0.4-0.2-0.6
			c-0.1-0.2-0.3-0.3-0.4-0.4c-0.2-0.1-0.4-0.2-0.6-0.3c-0.2-0.1-0.4-0.1-0.6,0c-0.5,0.1-0.9,0.4-1.1,0.8l-1.8,2.3L119.3,33.3z" />
            <path class="st1" d="M112.6,29.3c-0.2-0.3-0.3-0.7-0.3-1.1s0.1-0.9,0.3-1.3l1.5-2.8l0.8,0.4l-1.4,2.6c-0.2,0.4-0.3,0.9-0.2,1.3
			c0.1,0.2,0.2,0.4,0.3,0.5c0.1,0.2,0.3,0.3,0.5,0.4c0.2,0.1,0.4,0.2,0.6,0.2c0.2,0,0.4,0,0.6-0.1c0.2-0.1,0.4-0.2,0.6-0.4
			c0.2-0.2,0.3-0.4,0.4-0.6l1.4-2.6l0.8,0.4l-3.4,6.4l-0.8-0.4l1.3-2.3c-0.3,0.2-0.6,0.2-1,0.2s-0.7-0.1-1-0.3
			C113.2,29.9,112.8,29.6,112.6,29.3z" />
            <path class="st1" d="M107.1,23.7l4,1.6c0.2-0.4,0.2-0.9,0-1.4c-0.2-0.4-0.5-0.7-1-0.9c-0.3-0.1-0.7-0.2-1-0.1s-0.6,0.2-0.8,0.5
			l-0.9-0.4c0.3-0.4,0.8-0.7,1.3-0.9c0.6-0.1,1.2-0.1,1.7,0.2c0.5,0.2,0.9,0.5,1.2,0.9c0.2,0.4,0.4,0.8,0.4,1.3s0,1-0.2,1.5
			c-0.2,0.5-0.5,0.9-0.9,1.2c-0.3,0.3-0.8,0.5-1.2,0.6c-0.5,0.1-1,0-1.5-0.2c-0.5-0.2-0.9-0.5-1.2-0.8c-0.3-0.3-0.4-0.8-0.5-1.2
			c0-0.5,0-0.9,0.2-1.4C106.9,24.1,107,23.9,107.1,23.7z M107.5,25.7c0,0.3,0.2,0.5,0.4,0.8c0.2,0.2,0.5,0.4,0.7,0.5
			c0.4,0.2,0.8,0.2,1.2,0c0.2-0.1,0.4-0.2,0.6-0.3c0.2-0.2,0.3-0.3,0.4-0.6l-3.1-1.3C107.5,25,107.5,25.4,107.5,25.7z" />
            <path class="st1" d="M103.4,25.6c-0.4,0.1-0.8,0-1.1-0.1l0.3-0.9l0.2,0.1c1,0.3,1.6-0.1,2-1.1l0.9-2.7l0.9,0.3l-1.6,5.1l-0.9-0.3
			l0.3-0.9C104.1,25.4,103.8,25.6,103.4,25.6z" />
            <path class="st1" d="M97.4,21.1l4.2,1c0.1-0.2,0.1-0.5,0-0.7c0-0.2-0.1-0.4-0.2-0.6c-0.1-0.2-0.3-0.4-0.5-0.5
			c-0.2-0.1-0.4-0.2-0.6-0.3c-0.3-0.1-0.7-0.1-1,0s-0.5,0.3-0.7,0.6l-1-0.2c0.3-0.5,0.7-0.9,1.2-1.1c0.5-0.2,1.1-0.3,1.7-0.1
			c0.5,0.1,0.9,0.3,1.3,0.7c0.3,0.3,0.6,0.7,0.7,1.2c0.1,0.5,0.1,1,0,1.5c-0.1,0.5-0.3,1-0.7,1.4c-0.3,0.4-0.7,0.6-1.2,0.7
			c-0.5,0.1-1,0.1-1.5,0c-0.5-0.1-0.9-0.3-1.3-0.6c-0.3-0.3-0.6-0.7-0.7-1.1c-0.1-0.5-0.1-0.9,0-1.4C97.3,21.4,97.4,21.3,97.4,21.1z
			 M98.1,23c0.1,0.3,0.3,0.5,0.5,0.7c0.2,0.2,0.5,0.3,0.8,0.4c0.4,0.1,0.8,0,1.2-0.2c0.4-0.2,0.7-0.6,0.8-1.1L98,22
			C98,22.3,98,22.7,98.1,23z" />
            <path class="st1" d="M94.2,25.1l0.9-4.8l0.7,0.1l-0.7,4.9L94.2,25.1z M96.1,18.7c0.1,0.1,0.1,0.3,0.1,0.5c0,0.2-0.1,0.3-0.3,0.4
			c-0.1,0.1-0.3,0.1-0.5,0.1c-0.1,0-0.2,0-0.2-0.1c-0.1,0-0.1-0.1-0.2-0.2c0-0.1-0.1-0.1-0.1-0.2c0-0.1,0-0.2,0-0.2
			c0-0.1,0-0.2,0.1-0.2c0-0.1,0.1-0.1,0.2-0.2s0.1-0.1,0.2-0.1c0.1,0,0.2,0,0.2,0C95.9,18.5,96,18.6,96.1,18.7z" />
            <path class="st1" d="M86.7,21.6v-0.8l3.9,0.2v0.8L86.7,21.6z" />
        </g>
    </g>
    <g id="hi">
        <path class="st1" d="M83.2,72.8v27.2h-8.5V89.4h-8.1V100h-8.5V72.8h8.5v9.9h8.1v-9.8L83.2,72.8z" />
        <path class="st1" d="M89.2,75.3c-0.4-0.4-0.8-0.8-1-1.4c-0.2-0.5-0.4-1.1-0.4-1.7s0.1-1.2,0.3-1.7c0.2-0.5,0.6-1,1-1.4
		c1-0.9,2.2-1.3,3.6-1.3c1.3-0.1,2.5,0.4,3.5,1.3c0.4,0.4,0.8,0.9,1,1.4c0.2,0.5,0.4,1.1,0.3,1.7c0,0.6-0.1,1.2-0.3,1.7
		s-0.6,1-1,1.4c-1,0.9-2.2,1.3-3.5,1.3C91.4,76.7,90.2,76.2,89.2,75.3z M97,78.3v21.7h-8.5V78.3H97z" />
        <path class="st1" d="M104.1,99.1c-0.5-0.4-0.8-0.8-1.1-1.4c-0.2-0.5-0.4-1.1-0.4-1.7s0.1-1.2,0.3-1.7c0.2-0.5,0.6-1,1-1.4
		c1-0.8,2.2-1.2,3.5-1.2s2.5,0.4,3.5,1.2c0.4,0.4,0.8,0.9,1,1.4c0.2,0.5,0.4,1.1,0.3,1.7c0,0.6-0.1,1.2-0.3,1.7
		c-0.2,0.5-0.6,1-1,1.4c-1,0.8-2.2,1.2-3.5,1.2C106.4,100.2,105.1,99.9,104.1,99.1L104.1,99.1z M112.4,70.9l-1,18.3h-7.3l-1-18.3
		C103.1,70.9,112.4,70.9,112.4,70.9z" />
    </g>
</svg>