<svg width="264" height="300" viewBox="0 0 264 300" fill="none" xmlns="http://www.w3.org/2000/svg">
<mask id="mask0_656_12673" style="mask-type:luminance" maskUnits="userSpaceOnUse" x="0" y="-79" width="469" height="379">
<path d="M-0.000217718 91.661L373.861 -78.1968L468.226 129.504L94.3653 299.362L-0.000217718 91.661Z" fill="white"/>
</mask>
<g mask="url(#mask0_656_12673)">
</g>
<mask id="mask1_656_12673" style="mask-type:alpha" maskUnits="userSpaceOnUse" x="61" y="-9" width="384" height="293">
<path d="M428.972 34.8047C428.972 34.8047 217.563 -16.0181 178.099 20.497C160.576 36.7109 284.019 59.3995 372.11 98.9004C422.96 121.702 212.923 63.9429 113.416 103.901C83.4072 117.535 213.145 144.116 243.021 165.052C272.898 185.988 139.048 170.278 121.423 181.287C103.797 192.296 265.179 210.501 240.051 224.919C214.923 239.336 97.936 224.217 78.4169 244.339C70.1046 255.936 99.9997 263.653 114.497 268.212" stroke="#1F1E1C" stroke-width="31" stroke-linecap="round" stroke-linejoin="round"/>
</mask>
<g mask="url(#mask1_656_12673)">
<path d="M116.049 269.197C115.02 271.93 112.812 272.566 110.354 272.85L110.342 272.84C109.931 271.736 109.593 270.892 109.299 270.028C109.218 269.802 109.263 269.519 109.292 269.266C109.396 268.334 109.583 267.401 109.611 266.465C109.643 265.558 110.899 264.305 111.84 264.35C112.189 264.371 112.567 264.372 112.887 264.264C114.723 263.64 115.922 264.618 115.666 266.58C115.549 267.549 115.35 268.524 116.049 269.197ZM311.18 88.0852C313.078 88.213 314.994 88.2652 316.979 87.6861L316.993 87.7172C317.056 86.6455 316.552 86.1318 315.748 85.8894C314.753 85.5914 313.754 85.3177 312.746 85.1079C310.496 84.6373 308.25 84.1945 306.39 82.7064C306.167 82.5303 305.793 82.5203 305.488 82.4637C304.427 82.2704 303.327 82.2074 302.308 81.8901C300.701 81.3901 299.186 80.5628 297.563 80.1601C296.085 79.7962 294.958 78.7928 293.491 78.3865C292.622 78.151 291.99 77.1252 290.933 78.0183C290.796 78.1328 290.406 77.9876 290.151 77.9083C288.087 77.2331 286.029 76.5401 283.971 75.8621C283.247 75.6286 282.519 75.4192 281.788 75.1885C279.235 74.383 276.687 73.5749 274.14 72.7665C272.175 72.1438 270.211 71.5207 268.239 70.9161C267.511 70.6917 266.693 70.666 266.031 70.3216C263.735 69.1212 261.228 68.6324 258.754 68.001C257.772 67.7493 256.661 67.8266 255.917 66.9193C255.8 66.7775 255.512 66.7279 255.307 66.7238C253.056 66.6662 250.943 65.9829 248.898 65.134C243.959 63.0943 238.843 61.5475 233.938 59.4172C231.765 58.4689 229.397 57.9694 227.13 57.229C224.499 56.3687 221.864 55.5025 219.264 54.5607C217.56 53.9471 215.908 53.1821 214.225 52.5141C212.659 51.8901 211.079 51.3023 209.497 50.7083C208.323 50.2662 207.163 49.6231 205.944 49.4641C204.701 49.3011 203.666 48.7814 202.583 48.2905C201.696 47.8831 200.795 47.4748 199.922 47.0311C198.228 46.1731 196.553 45.2607 194.852 44.4208C194.28 44.1407 193.653 43.9078 193.024 43.8032C191.176 43.5027 189.467 42.8611 187.838 41.9656C186.793 41.3904 185.702 40.8657 184.74 40.1772C183.328 39.1608 181.976 38.0795 180.342 37.4193C180.121 37.3321 180.009 37.0004 179.832 36.7954C179.119 35.9717 178.38 35.2421 177.254 34.9211C176.446 34.6877 175.587 34.2904 175.002 33.7161C173.802 32.5358 172.768 31.1899 171.679 29.9065C171.474 29.6698 171.269 29.4025 171.176 29.1147C170.881 28.1834 170.583 27.2461 170.384 26.2937C170.06 24.7677 169.421 23.2427 169.923 21.657C170.547 19.6778 171.256 17.72 171.962 15.7712C172.083 15.4389 172.344 15.1329 172.608 14.8851C173.243 14.2893 173.998 13.8113 174.57 13.1612C175.505 12.0987 176.631 11.3393 177.916 10.8458C179.596 10.1949 181.307 9.61267 183.037 9.10425C185.54 8.37204 188.066 7.68959 190.604 7.08406C191.481 6.87311 192.462 7.08774 193.345 6.87395C195.041 6.47138 196.694 5.89295 198.37 5.4163C198.786 5.30238 199.225 5.27527 199.663 5.24165C201.19 5.11778 202.72 5.04566 204.246 4.88501C204.773 4.83312 205.325 4.657 205.787 4.39475C206.73 3.84646 207.693 3.70863 208.772 3.84132C209.908 3.98521 211.106 4.19886 212.193 3.96772C213.118 3.7646 213.835 3.649 214.561 4.56482C215.238 4.04701 215.813 3.56815 216.426 3.13985C216.906 2.80176 217.396 2.35388 217.94 2.25669C219.161 2.03946 220.425 1.91549 221.668 1.91321C222.881 1.90986 224.047 1.92017 225.186 1.37266C225.656 1.14435 226.311 0.944276 226.75 1.09737C229.127 1.93039 231.499 1.50566 233.836 1.08892C235.147 0.853405 236.31 0.955093 237.471 1.48538C238.406 1.91594 239.371 2.0477 240.344 1.66569C241.909 1.0597 243.421 1.01788 244.924 1.82026C245.613 2.19016 246.17 2.15463 246.507 1.3189C246.704 0.839303 247.101 0.718622 247.59 0.864272C250.6 1.77761 253.655 1.44725 256.704 1.13501C258.997 0.903361 261.263 0.961441 263.537 1.38388C264.055 1.47856 264.64 1.20534 265.265 1.08651C266.283 1.81678 266.537 1.84404 267.733 1.7881C269.326 1.70936 270.878 1.37213 272.517 1.69276C274.592 2.09294 276.744 2.09806 278.852 2.35559C279.72 2.45641 280.504 2.57294 281.39 2.20015C282.043 1.92624 282.884 2.00137 283.624 2.08545C286.65 2.42108 289.622 3.28414 292.738 2.82126C293.38 2.72447 294.093 3.08329 294.764 3.28122C295.644 3.54157 296.503 4.00621 297.402 4.10811C298.961 4.28518 300.552 4.26727 302.126 4.29494C302.936 4.31722 303.756 4.29732 304.563 4.23078C305.268 4.17291 305.91 4.07611 306.624 4.43466C307.151 4.69792 307.921 4.70046 308.522 4.56244C309.377 4.36907 310.097 4.42461 310.883 4.82546C312.357 5.58092 313.911 6.03015 315.624 5.88216C316.373 5.81969 317.154 6.01232 317.9 6.16089C319.551 6.49113 321.187 6.90343 322.839 7.20309C324.046 7.41985 325.276 7.52113 326.587 7.68338C327.596 7.01503 328.021 6.90448 328.891 7.25934C330.474 7.90541 332.082 8.32284 333.827 8.13011C334.188 8.0938 334.599 8.16943 334.934 8.3097C335.889 8.70118 336.843 9.10793 337.748 9.60474C338.499 10.0136 339.18 10.0191 339.945 9.69407C340.33 9.52703 340.871 9.27369 341.169 9.41573C342.386 10.0031 343.846 9.64732 344.993 10.6116C345.543 11.0745 346.53 11.1887 347.308 11.1579C349.863 11.0548 352.395 10.9998 354.835 11.9543C355.083 12.0517 355.362 12.1503 355.626 12.1351C357.466 12.0344 359.173 12.5716 360.913 13.064C363.217 13.7201 365.564 14.2522 367.904 14.7718C368.47 14.9049 369.164 14.9721 369.67 14.7573C370.672 14.3243 371.534 14.5629 372.329 15.0497C373.396 15.7052 374.578 15.7984 375.765 15.9869C377.382 16.2425 378.975 16.6288 380.581 16.9269C383.096 17.3975 385.545 18.2579 388.16 18.1201C388.747 18.0857 389.394 18.1448 389.922 18.3622C393.125 19.6678 396.373 20.6905 399.893 20.6365C400.919 20.6205 401.986 20.661 402.971 20.9189C406.823 21.9444 410.686 22.9277 414.24 24.8087C415.206 25.323 416.191 25.8807 417.238 26.1102C419.082 26.5176 420.653 27.3193 421.765 28.8025C422.742 30.1065 423.654 31.4848 424.355 32.9444C424.781 33.8314 424.743 34.9438 424.949 36.126C423.614 37.1225 422.143 38.151 420.756 39.2834C418.828 40.865 416.773 40.9058 414.665 39.868C413.361 39.2226 412.225 38.2006 410.893 37.6429C408.637 36.6948 406.259 36.0422 403.97 35.1542C401.079 34.0369 398.052 33.6342 395.013 33.2217C394.274 33.1223 393.465 32.8522 392.897 32.3978C392.045 31.7193 391.099 31.6766 390.127 31.563C389.696 31.5111 389.245 31.581 388.822 31.4958C384.324 30.5761 379.835 29.6445 375.344 28.7067C374.171 28.4667 373.01 28.169 371.834 27.938C370.832 27.7407 369.811 27.6345 368.805 27.4462C367.897 27.2736 366.982 26.8193 366.109 26.908C364.67 27.0442 363.338 26.7343 361.968 26.5088C361.267 26.3924 360.553 26.349 359.845 26.318C357.227 26.217 354.663 25.7691 352.087 25.3116C350.608 25.0455 349.151 24.0122 347.492 24.8108C347.27 24.9192 346.769 24.4641 346.393 24.2674C345.825 23.9629 345.118 23.2863 344.71 23.4342C343.613 23.8424 342.865 23.1247 341.955 22.9826C340.991 22.8356 340.008 22.7797 339.039 22.6723C337.208 22.4612 335.313 22.7894 333.533 22.0753C332.472 21.6495 331.406 21.2112 330.306 20.9156C328.96 20.5594 327.588 19.9299 326.181 20.8168C325.979 20.9383 325.648 20.8563 325.378 20.859C323.525 20.8981 321.784 19.8211 319.885 20.3237C319.838 20.3373 319.781 20.2958 319.727 20.2756C318.658 19.8985 317.583 19.5392 316.521 19.1439C315.114 18.6203 314.765 18.8161 314.528 20.4845C312.966 19.9861 311.338 19.7056 310.043 18.6811C309.543 18.278 309.183 18.2012 308.589 18.3363C307.904 18.4898 307.185 18.5689 306.487 18.5261C304.922 18.4344 303.348 18.0393 301.805 18.1626C300.462 18.2624 299.344 17.8927 298.166 17.4751C297.346 17.1801 296.509 16.9151 295.663 16.7294C295.285 16.6458 294.819 16.7001 294.451 16.8371C292.74 17.487 291.041 17.8615 289.249 17.1225C287.032 16.2094 284.655 16.2916 282.327 16.164C281.561 16.1218 280.85 16.0694 280.116 15.8631C278.77 15.4915 277.445 14.7808 275.982 15.5128C275.769 15.6246 275.343 15.6158 275.189 15.4758C273.89 14.3103 272.533 15.0919 271.188 15.3201C270.873 15.3733 270.542 15.5086 270.234 15.4763C266.094 15.0466 261.898 15.5423 257.765 14.8618C257.668 14.8461 257.514 14.8408 257.451 14.8997C256.843 15.4384 256.339 15.0073 255.821 14.7474C254.273 13.9802 252.793 13.9775 251.112 14.6437C249.737 15.186 248.146 15.2036 246.641 15.362C244.52 15.5905 242.447 14.762 240.321 15.0148C239.627 15.0976 238.934 15.2474 238.248 15.3641C237.19 14.3295 237.033 14.1682 236.213 14.6535C234.669 15.5723 233.046 15.1693 231.438 15.2996C230.065 15.4136 228.696 14.8576 227.289 15.5793C226.415 16.0291 225.243 16.1715 224.256 16.0421C223.126 15.8953 222.228 16.1759 221.273 16.632C220.976 16.7745 220.506 16.7856 220.204 16.6526C219.214 16.2324 218.263 15.9665 217.208 16.4833C216.949 16.6088 216.556 16.5096 216.236 16.4525C214.528 16.1479 212.905 16.623 211.264 16.9632C209.763 17.2777 208.248 17.5458 206.726 17.7648C206.386 17.814 205.939 17.6423 205.659 17.4244C204.973 16.8955 204.385 17.0955 203.679 17.4012C202.58 17.8705 201.443 18.4545 200.288 18.5364C199.112 18.6206 198.095 18.9705 196.997 19.3114C195.692 19.7093 194.44 20.9535 192.884 19.9198C192.732 19.8165 192.375 20.046 192.112 20.098C191.747 20.1739 191.374 20.2309 191.006 20.3006C189.991 20.4914 188.961 20.6144 187.98 20.8951C187.073 21.1571 186.719 21.8729 187.207 22.6641C187.738 23.518 188.47 24.2811 189.229 24.9564C190.407 26.0044 191.645 27.0024 192.932 27.9104C194.399 28.9471 195.934 29.8852 197.466 30.8171C197.873 31.067 198.438 31.0807 198.836 31.3425C201.232 32.9319 203.964 33.8141 206.614 34.7332C210.699 36.1555 214.757 37.6352 218.542 39.6895C220.201 40.5861 221.933 40.9773 223.679 41.4516C225.468 41.9366 227.234 42.3871 228.876 43.3443C230.301 44.1745 231.928 44.6658 233.475 45.2983C233.617 45.3614 233.793 45.319 233.955 45.343C234.746 45.4564 235.547 45.5576 236.342 45.6987C237.3 45.8639 238.256 46.0596 239.21 46.2491C239.575 46.3231 239.973 46.3524 240.311 46.4989C241.558 47.0352 242.741 47.7805 244.038 48.1289C246.153 48.6987 248.243 49.2647 250.095 50.4862C250.31 50.6284 250.616 50.6544 250.885 50.6975C253.518 51.0989 256.104 51.6274 258.532 52.7897C259.111 53.067 259.793 53.1549 260.425 53.3178C261.953 53.711 263.53 53.9927 265.023 54.5071C267.906 55.5078 270.735 56.6535 273.597 57.7085C275.443 58.3853 277.32 58.9654 279.163 59.6512C281.768 60.6207 284.319 61.7349 287.168 61.8808C287.809 61.9124 288.72 62.0086 289.008 62.4256C289.963 63.7993 291.22 63.6935 292.654 63.7622C293.84 63.816 295.02 64.4877 296.158 64.9835C297.302 65.4765 298.266 66.419 299.671 66.2083C299.891 66.1762 300.144 66.4513 300.402 66.5215C301.502 66.8171 302.605 67.0884 303.709 67.3596C304.132 67.4601 304.576 67.491 304.992 67.6096C307.767 68.4046 310.374 69.6281 313.244 70.1847C315.471 70.6208 317.681 71.4021 319.737 72.3738C321.663 73.2919 323.65 73.6492 325.702 73.9323C326.716 74.0719 327.603 74.3968 328.296 75.1769C329.126 76.1055 330.194 76.333 331.414 76.2962C332.204 76.275 333.029 76.3954 333.794 76.6028C335.996 77.2002 338.173 77.8919 340.368 78.5227C342.726 79.199 345.199 79.4785 347.414 80.6179C347.561 80.6935 347.716 80.7659 347.87 80.808C351.726 81.8398 355.432 83.3069 359.162 84.7106C362.121 85.8271 365.192 86.66 368.211 87.6288C369.445 88.0209 370.706 88.3711 371.902 88.8628C373.056 89.3439 374.128 90.0271 375.275 90.5263C377.433 91.4587 379.466 92.5459 381.29 94.0877C382.297 94.9431 383.023 95.8589 383.442 97.0638C384.071 98.8636 384.893 100.673 384.23 102.617C383.89 103.612 383.471 104.815 382.691 105.372C381.289 106.369 379.606 106.999 378.004 107.705C377.154 108.076 376.262 108.188 375.288 108.053C373.032 107.735 370.782 107.265 368.464 107.575C367.155 107.749 365.857 107.184 364.595 107.21C362.361 107.257 360.161 107.379 357.922 107.083C356.469 106.888 355.015 106.843 353.59 106.395C351.885 105.864 350.129 105.484 348.378 105.117C347.939 105.031 347.437 105.252 346.966 105.346C346.177 105.502 345.395 105.722 344.594 105.801C343.509 105.904 342.415 105.906 341.321 105.938C340.777 105.952 340.219 106.018 339.699 105.902C337.827 105.484 336.027 105.057 334.01 105.118C330.918 105.218 327.804 104.689 324.715 104.315C322.879 104.091 321.03 103.806 319.263 103.288C318.21 102.979 317.325 102.376 316.086 102.421C314.275 102.486 312.429 101.794 310.684 102.85C310.524 102.945 310.257 102.856 310.042 102.879C308.851 103.015 307.651 103.095 306.476 103.314C304.601 103.67 302.798 103.687 301.042 102.827C300.768 102.688 300.37 102.592 300.102 102.683C298.509 103.242 297.005 102.605 295.488 102.521C295.303 100.985 294.347 100.309 293.091 100.73C292.565 100.901 292.075 101.184 291.546 101.282C290.872 101.408 290.173 101.448 289.483 101.439C288.995 101.428 288.517 101.255 288.031 101.198C285.837 100.934 283.608 101.324 281.406 100.727C279.842 100.305 278.187 100.232 276.563 100.077C272.33 99.6743 268.097 99.3241 263.867 98.9279C262.787 98.8258 261.709 98.6778 260.656 98.4512C259.922 98.2969 259.22 97.9783 258.493 97.7233C257.22 98.7893 255.872 98.7114 254.531 98.0678C253.44 99.5165 252.896 99.5987 251.558 98.5635C251.254 98.3264 250.986 98.0505 250.695 97.8077C249.698 96.9925 248.734 96.8455 247.722 97.6055C247.07 98.0967 246.49 98.2327 245.763 97.993C245.047 97.7629 244.426 98.3378 243.562 97.9801C242.278 97.4455 240.779 97.0162 239.373 98.0225C239.117 98.2063 238.577 98.2791 238.316 98.1354C236.414 97.0712 234.557 97.2172 232.697 98.2198C231.995 98.599 231.221 98.6055 230.697 98.1007C229.97 97.3959 229.278 97.5525 228.439 97.7311C227.495 97.9274 226.487 98.1307 225.559 97.9819C223.951 97.7297 222.373 97.2613 220.814 96.7691C220.232 96.5834 219.818 96.5992 219.274 96.8463C218.001 97.4319 216.491 97.7281 215.316 97.1667C214.418 96.7344 213.829 96.8144 213.052 97.0625C212.703 97.1757 212.321 97.2143 211.956 97.2076C211.321 97.2037 210.691 97.1449 209.916 97.0994C209.555 96.8205 209.067 96.4423 208.512 96.019C208.103 96.5799 207.804 97.0011 207.563 97.3354C206.828 97.3096 206.234 97.264 205.642 97.2707C204.607 97.2834 203.505 97.5663 202.548 97.3033C200.164 96.6536 198.024 97.423 195.834 98.0805C195.43 98.204 195.002 98.256 194.584 98.3484C193.243 98.6349 191.908 98.4014 190.566 98.4033C187.855 98.4122 185.107 98.1078 182.42 98.8335C182.209 98.8843 181.973 98.9314 181.772 98.8876C180.218 98.521 178.766 99.1432 177.272 99.3417C176.649 99.43 176.009 99.3831 175.381 99.3458C174.355 99.2792 173.352 98.5644 172.282 99.2459C172.114 99.3594 171.821 99.4103 171.646 99.3399C170.243 98.7766 168.966 99.2217 167.58 99.5892C165.29 100.194 162.908 100.114 160.556 99.8018C160.26 99.7638 159.931 99.9206 159.621 100.002C159.1 100.133 158.578 100.393 158.056 100.39C156.386 100.383 154.773 101.334 153.073 100.696C152.928 100.642 152.744 100.703 152.584 100.731C149.08 101.302 145.574 101.868 142.069 102.454C140.521 102.715 138.914 102.815 137.457 103.342C135.326 104.115 133.197 104.527 130.941 104.757C128.691 104.984 126.487 105.775 124.275 106.353C123.397 106.579 123.127 107.212 123.138 108.1C123.154 109.18 123.894 109.782 124.571 110.359C125.724 111.336 126.996 112.176 128.191 113.111C128.831 113.608 129.361 114.275 130.047 114.691C131.343 115.468 132.73 116.098 134.061 116.821C134.732 117.184 135.359 117.619 136.016 118.003C137.09 118.641 138.108 119.634 139.258 119.824C142.153 120.302 144.593 122.021 147.49 122.453C148.631 122.625 149.675 123.396 150.795 123.802C152.847 124.551 154.92 125.244 156.989 125.947C157.656 126.169 158.346 126.329 159.002 126.578C160.974 127.333 162.932 128.139 164.907 128.884C165.255 129.019 165.669 128.95 166.041 129.037C167.1 129.276 168.171 129.494 169.202 129.821C171.112 130.424 172.964 131.293 174.916 131.689C177.597 132.227 180.231 132.815 182.688 134.039C182.93 134.155 183.236 134.331 183.459 134.275C184.461 134.007 185.262 134.588 186.139 134.827C187.929 135.312 189.714 135.807 191.496 136.31C191.964 136.442 192.414 136.635 192.878 136.792C193.447 136.984 194.019 137.181 194.596 137.339C195.492 137.585 196.411 137.73 197.273 138.036C198.996 138.656 200.654 139.449 202.397 139.999C205.76 141.06 209.165 141.996 212.546 142.996C213.444 143.263 214.522 143.163 215.065 144.207C215.148 144.357 215.443 144.478 215.64 144.479C217.789 144.477 219.456 145.671 221.236 146.602C221.661 146.822 222.196 147.037 222.634 146.972C224.058 146.753 225.346 147.166 226.604 147.659C229.9 148.953 233.225 150.196 236.413 151.718C237.383 152.177 238.363 152.557 239.355 152.947C240.718 153.491 242.032 154.161 243.372 154.768C244.255 155.169 245.124 155.668 246.053 155.921C247.368 156.276 248.419 156.961 249.349 157.912C249.995 158.571 250.647 159.242 251.39 159.783C252.369 160.493 252.892 161.463 253.33 162.525C253.52 162.979 253.637 163.466 253.888 163.885C255.5 166.588 253.692 170.86 251.638 172.664C250.379 173.761 248.845 174.6 247.331 175.334C245.519 176.209 243.598 176.88 241.709 177.603C240.537 178.045 239.295 178.332 238.154 178.842C235.361 180.082 232.431 180.67 229.42 180.966C228.279 181.079 227.139 181.161 225.996 181.283C225.24 181.364 224.48 181.649 223.749 181.569C222.001 181.373 220.293 181.166 218.646 182.057C218.38 182.2 217.997 182.104 217.668 182.126C216.683 182.183 215.683 182.157 214.719 182.325C212.679 182.682 210.656 183.031 208.581 182.796C208.367 182.773 208.111 182.755 207.932 182.843C207.252 183.19 206.637 182.982 206.063 182.649C205.265 182.187 204.461 182.244 203.709 182.646C202.197 183.453 200.735 183.39 199.035 183.149C197.405 182.915 195.674 183.056 193.978 182.941C192.128 182.821 190.106 183.2 188.29 184.1C187.682 184.406 186.812 184.336 186.095 184.235C184.687 184.041 183.302 183.763 181.872 184.135C181.534 184.221 180.989 184.266 180.803 184.073C179.929 183.18 178.856 183.622 177.952 183.725C176.956 183.84 175.997 184.404 175.042 184.808C174.308 185.118 173.628 185.18 172.817 185.023C170.672 184.617 168.515 184.435 166.428 185.435C165.902 185.689 165.279 185.814 164.697 185.861C163.955 185.921 163.197 185.83 162.442 185.828C161.463 185.831 160.303 186.185 159.549 185.785C158.652 185.322 157.872 185.429 157.035 185.464C155.904 185.513 154.76 185.605 153.644 185.804C152.982 185.925 152.37 186.286 151.431 186.66C152.02 187.292 152.355 187.763 152.793 188.096C153.794 188.872 154.987 189.208 156.232 189.475C158.409 189.934 160.58 190.463 162.711 191.085C164.532 191.623 166.307 192.325 168.099 192.966C168.193 193.006 168.285 193.092 168.346 193.176C168.791 193.807 169.404 193.731 170.094 193.74C172.076 193.77 174.161 193.475 175.803 195.032C175.939 195.165 176.205 195.202 176.413 195.228C177.659 195.382 178.905 195.566 180.154 195.659C180.738 195.701 181.397 195.709 181.916 195.489C182.706 195.152 183.208 195.344 183.84 195.822C184.612 196.409 185.57 197.189 186.522 196.712C188.188 195.88 189.682 196.709 191.092 197.074C193.11 197.597 194.971 198.657 197.177 198.368C197.511 198.321 197.884 198.609 198.247 198.729C199.217 199.054 200.184 199.59 201.177 199.634C202.525 199.697 203.749 200.048 204.995 200.45C205.444 200.591 206.002 200.758 206.398 200.615C207.563 200.191 208.531 200.599 209.532 201.074C210.071 201.332 210.631 201.55 211.201 201.742C212.543 202.189 213.878 202.438 215.349 202.423C217.524 202.395 219.601 203.132 221.571 204.097C222.336 204.47 223.239 204.862 224.042 204.805C226.151 204.649 228.025 205.471 229.922 206.027C232.581 206.8 235.117 207.981 237.715 208.969C238.635 209.316 239.582 209.576 240.495 209.941C242.415 210.697 244.32 211.489 246.219 212.299C246.5 212.419 246.752 212.657 246.936 212.896C247.231 213.28 247.444 213.716 247.62 214.004C248.584 214.233 249.402 214.372 250.171 214.638C250.549 214.773 250.933 215.087 251.153 215.422C252.711 217.805 253.637 220.31 253.109 223.281C252.807 224.941 252.224 226.428 251.416 227.853C251.201 228.244 250.734 228.561 250.309 228.754C248.927 229.397 247.515 229.993 246.105 230.574C242.968 231.872 239.792 233.03 236.43 233.664C233.334 234.254 230.281 235.07 227.212 235.804C225.836 236.129 224.475 236.538 223.086 236.816C222.594 236.912 222.013 236.794 221.515 236.645C220.626 236.381 219.772 235.996 218.891 235.699C217.982 235.392 217.185 235.514 216.55 236.342C215.919 237.161 215.081 237.325 214.062 237.157C213.403 237.052 212.583 237.057 212.01 237.355C210.878 237.951 209.714 237.88 208.532 237.9C208.203 237.906 207.88 238.008 207.551 238C206.797 237.983 206.044 237.919 205.287 237.881C204.705 237.845 204.105 237.705 203.546 237.802C201.654 238.136 199.788 238.459 197.896 237.848C197.666 237.772 197.35 237.826 197.111 237.912C196.217 238.236 195.35 238.337 194.416 237.958C194.075 237.821 193.541 237.958 193.163 238.122C192.155 238.558 191.214 239.128 190.048 238.57C189.756 238.425 189.3 238.633 188.92 238.677C187.961 238.791 187.003 238.956 186.04 238.996C184.752 239.048 183.483 238.664 182.157 238.967C181.383 239.138 180.466 239.143 179.739 238.872C178.45 238.393 177.423 238.687 176.323 239.337C175.669 239.724 175.01 239.836 174.192 239.345C173.229 238.769 172.106 238.507 170.914 239.086C170.419 239.326 169.739 239.207 169.142 239.223C168.651 239.236 168.162 239.188 167.67 239.202C166.195 239.242 164.814 240.237 163.274 239.669C161.544 240.725 159.711 240.725 157.824 240.224C157.776 240.216 157.717 240.22 157.661 240.231C155.605 240.685 153.692 240.144 151.767 239.51C150.952 239.243 150.103 239.118 149.166 239.296C147.035 239.702 144.867 239.944 142.707 240.22C141.038 240.431 139.346 240.307 137.673 240.377C135.299 240.48 133.057 241.191 130.714 241.348C128.584 241.49 126.462 241.764 124.33 241.953C122.922 242.075 121.507 242.117 120.099 242.254C118.7 242.395 117.304 242.744 115.91 242.762C113.569 242.79 111.375 243.255 109.28 244.289C108.992 244.435 108.663 244.524 108.343 244.565C106.513 244.788 104.687 244.988 102.856 245.19C101.613 245.327 100.355 245.395 99.1189 245.612C97.1406 245.956 95.1784 246.42 93.2023 246.785C91.5198 247.099 90.6795 248.636 91.4364 250.153C91.6332 250.536 91.8429 250.981 92.1745 251.213C94.3429 252.749 96.5307 254.26 98.7447 255.73C100.39 256.828 102.351 257.558 103.282 259.475C103.748 260.434 104.304 261.194 105.326 261.615C105.624 261.742 105.795 262.167 106.044 262.482C105.626 262.957 105.267 263.36 104.922 263.779C104.757 263.982 104.441 264.268 104.49 264.425C104.881 265.651 103.775 266.536 103.945 267.741C102.753 267.84 101.682 267.922 100.527 268.019C100.327 268.44 100.109 268.892 99.9581 269.208C99.4251 268.632 99.039 267.833 98.4478 267.643C97.2869 267.263 96.5858 266.434 95.7966 265.66C95.5365 265.403 95.3021 265.119 95.058 264.847C94.5108 265.021 94.0478 265.164 93.6097 265.295C92.0884 263.308 91.5139 263.239 89.8861 264.819C90.0112 265.227 90.1511 265.651 90.2954 266.118C89.8854 266.162 89.6242 266.183 89.2573 266.222C89.5124 264.343 87.9337 263.958 86.8367 263.436C85.8844 262.983 84.7983 263.432 84.312 264.636C83.707 264.25 83.2482 263.753 82.7147 263.658C80.9558 263.34 79.6048 262.408 78.451 261.147C77.5034 260.107 76.391 259.104 75.8071 257.869C74.8153 255.769 74.0065 253.541 73.463 251.282C72.9909 249.313 72.3995 247.414 71.5223 245.599C71.0565 244.64 71.192 243.693 71.5756 242.761C72.0408 241.627 72.7532 240.689 73.7586 239.947C74.1761 239.637 74.599 239.205 74.78 238.74C75.4252 237.089 76.6486 236.098 78.2329 235.468C79.1967 235.083 80.2171 234.822 81.1583 234.387C82.4405 233.789 83.6753 233.085 84.9174 232.416C85.9617 231.859 87.1046 231.587 88.132 230.911C89.1942 230.21 90.4866 229.901 91.8949 230.079C93.3122 230.26 94.7803 230.088 96.2283 230.038C96.5389 230.024 96.8555 229.858 97.1663 229.762C97.8907 229.53 98.6378 229.348 99.3374 229.046C100.887 228.372 102.594 228.511 104.216 228.097C106.359 227.551 108.559 226.581 110.918 227.175C111.283 227.264 111.758 226.981 112.171 226.846C113.661 226.372 115.113 225.667 116.638 225.454C119.283 225.085 121.973 225.011 124.639 224.82C125.953 224.725 127.303 224.825 128.562 224.523C131.224 223.891 133.885 224.107 136.555 224.14C137.479 224.148 138.37 224.2 139.275 223.752C139.798 223.492 140.537 223.658 141.18 223.629C141.549 223.611 141.924 223.621 142.292 223.567C144.277 223.287 146.154 222.457 148.24 222.597C150.022 222.718 151.823 223.115 153.627 222.618C153.912 222.533 154.314 222.636 154.581 222.792C155.433 223.29 156.272 223.044 157.126 222.866C157.491 222.79 157.884 222.642 158.242 222.682C160.412 222.926 162.594 223.18 164.281 225.069C165.632 224.456 166.995 223.904 168.299 223.221C169.785 222.441 171.255 221.826 172.986 222.232C173.451 222.343 173.967 222.267 174.458 222.269C176.193 222.268 177.93 222.274 179.669 222.249C181.008 222.226 182.301 222.682 183.706 222.306C185.056 221.94 186.546 221.751 187.918 221.915C189.22 222.074 190.485 222.002 191.643 221.678C194.745 220.802 197.893 221.074 200.935 221.395C203.745 221.686 206.485 221.109 209.249 221.384C209.613 221.421 210.046 221.33 210.357 221.151C211.255 220.638 212.227 220.684 213.199 220.565C214.287 220.438 215.51 220.572 216.388 219.649C216.23 218.437 215.212 218.39 214.433 218.136C213.608 217.865 212.707 217.84 211.865 217.615C209.942 217.1 207.772 216.871 207.489 214.239C207.485 214.181 207.463 214.116 207.421 214.09C206.983 213.823 206.55 213.368 206.09 213.336C205.236 213.282 205.754 214.157 205.466 214.618C205.107 214.541 204.741 214.467 204.381 214.39C202.232 213.942 202.421 213.81 200.164 214.221C200.052 214.241 199.944 214.268 199.837 214.264C198.357 214.277 196.906 214.171 195.538 213.517C195.209 213.358 194.82 213.317 194.458 213.234C193.46 213.013 192.459 212.8 191.457 212.588C191.143 212.528 190.832 212.406 190.521 212.42C188.925 212.477 187.692 211.935 186.819 210.546C186.553 210.127 186.009 209.661 185.565 209.63C184.451 209.551 183.27 209.375 182.229 210.021C181.659 210.377 181.182 210.324 180.563 210.057C179.163 209.448 177.711 209.043 176.127 209.192C175.504 209.25 174.855 208.982 174.219 208.844C173.966 208.786 173.726 208.655 173.47 208.606C172.354 208.408 171.223 208.291 170.125 208.033C167.533 207.425 164.941 206.802 162.385 206.088C161.237 205.769 159.913 205.778 159.099 204.617C158.951 204.407 158.404 204.445 158.033 204.426C157.601 204.405 157.152 204.496 156.727 204.442C154.397 204.127 152.068 203.783 149.74 203.438C149.538 203.409 149.217 203.383 149.16 203.258C148.527 201.963 147.213 202.012 146.076 201.734C145.903 201.287 145.773 200.866 145.589 200.477C144.996 199.239 144.527 199.054 143.25 199.664C142.618 199.966 142.063 200.421 141.474 200.816C140.569 201.415 139.786 201.801 138.657 201.008C137.444 200.149 135.969 199.656 134.62 198.994C134.433 198.899 134.238 198.77 134.116 198.6C133.626 197.922 132.92 197.876 132.2 197.918C130.868 197.99 129.606 197.738 128.387 197.197C127.642 196.868 126.928 196.577 126.32 195.968C125.889 195.533 125.183 195.389 124.618 195.076C122.782 194.056 120.955 193.041 119.75 191.203C119.458 190.758 118.831 190.458 118.292 190.267C116.787 189.728 115.383 189.076 114.334 187.812C113.047 186.258 112.342 184.441 111.991 182.507C111.894 181.943 112.246 181.274 112.468 180.685C112.712 180.026 113.19 179.434 113.33 178.763C113.711 176.962 114.996 175.89 116.315 174.841C116.844 174.413 117.416 174.093 118.224 174.229C118.69 174.309 119.235 173.882 119.752 173.707C120.209 173.552 120.669 173.388 121.148 173.313C121.837 173.202 122.578 173.271 123.237 173.076C125.094 172.517 126.926 172 128.849 172.912C129.595 171.418 130.726 171.249 132.096 171.542C132.829 171.696 133.619 171.66 134.379 171.623C135.831 171.548 137.282 171.369 138.732 171.325C139.424 171.304 140.255 171.789 140.793 171.544C143.016 170.512 145.524 171.518 147.71 170.42C147.914 170.32 148.24 170.472 148.51 170.469C150.524 170.469 152.538 170.47 154.549 170.464C154.819 170.461 155.14 170.503 155.356 170.382C156.844 169.556 158.546 169.765 160.124 169.386C161.763 168.994 163.442 169.004 165.118 169.488C165.883 169.711 166.757 169.794 167.55 169.681C169.443 169.413 171.302 168.974 173.188 168.642C173.936 168.512 174.705 168.396 175.46 168.413C177.751 168.46 180.026 168.469 182.306 168.108C183.699 167.888 185.122 167.834 186.534 167.77C187.838 167.718 189.169 167.909 190.439 167.699C192.012 167.442 193.509 167.302 195.106 167.597C198.02 168.133 200.98 167.891 203.914 167.594C204.78 167.508 205.62 167.246 206.482 167.185C207.44 167.117 208.444 167.021 209.357 167.236C210.05 167.402 210.616 167.467 211.228 167.122C211.925 166.73 212.639 166.608 213.442 166.783C214.185 166.941 214.956 167.026 215.716 167.04C216.18 167.047 216.702 166.953 217.097 166.728C218.428 165.988 219.816 165.755 221.333 165.839C222.849 165.923 224.43 165.932 225.803 165.121C226.221 164.878 226.672 164.329 226.701 163.895C226.753 163.196 226.182 162.683 225.494 162.531C224.806 162.378 224.077 162.251 223.378 162.306C222.451 162.375 221.674 162.158 220.911 161.657C219.45 160.7 217.871 159.865 216.166 159.581C213.226 159.087 210.454 158.298 208.014 156.563C207.324 156.074 206.743 155.34 205.741 155.825C203.507 155.257 201.275 154.711 199.113 153.885C197.966 153.454 196.847 152.949 195.555 152.846C194.689 152.782 193.749 152.324 193.068 151.77C192.175 151.051 191.335 150.847 190.223 151.037C188.671 151.307 187.153 151.119 185.87 150.089C185.111 149.481 184.368 148.843 183.648 148.188C182.774 147.392 181.889 146.856 180.747 147.728C180.282 148.082 179.731 148.047 179.403 147.641C178.68 146.746 177.74 146.738 176.754 146.826C174.444 147.036 172.199 146.908 170.098 145.769C169.256 145.311 168.356 144.91 167.43 144.663C166.181 144.322 164.892 144.023 163.608 143.953C161.783 143.853 160.385 143.085 159.208 141.774C159.038 141.581 158.833 141.344 158.605 141.29C156.758 140.877 154.897 140.499 153.073 140.12C152.602 139.599 152.11 139.065 151.581 138.48C151.125 138.905 150.819 139.194 150.532 139.459C149.019 138.818 147.611 138.093 146.116 137.624C143.951 136.942 141.784 136.292 139.905 134.962C139.869 134.933 139.789 134.955 139.747 134.929C138.428 134.185 136.823 134.502 135.471 133.751C134.2 133.045 132.766 132.646 131.462 132.001C130.956 131.75 130.588 131.205 130.175 130.778C129.962 130.559 129.792 130.299 129.485 129.921C129.241 130.414 129.077 130.751 128.89 131.136C128.516 130.894 128.173 130.772 127.987 130.526C127.47 129.838 126.817 129.595 125.995 129.346C124.897 129.004 123.638 128.758 122.859 127.724C122.042 126.64 120.919 126.078 119.6 125.912C117.849 125.694 116.38 124.884 115.04 123.827C114.278 123.228 113.565 122.539 112.896 121.83C110.951 119.773 109.009 117.707 107.106 115.609C106.414 114.85 105.612 114.082 105.234 113.166C103.682 109.384 103.355 105.594 105.725 101.929C106.258 101.11 106.617 100.174 107.173 99.3731C107.762 98.5278 108.367 97.5853 109.194 97.0298C111.187 95.6892 113.278 94.4992 115.389 93.3524C116.283 92.8636 117.321 92.6246 118.303 92.3134C118.969 92.1011 119.656 91.9689 120.329 91.7905C121.431 91.4926 122.519 90.9681 123.622 90.9395C124.673 90.9121 125.647 90.8147 126.654 90.5073C128.09 90.0651 129.452 89.3262 131.062 89.45C131.907 89.5163 132.782 89.2013 133.642 89.0356C135.878 88.6123 138.086 87.8269 140.412 88.4806C140.654 88.5503 140.956 88.5184 141.208 88.4415C142.832 87.9661 144.446 87.4505 146.073 86.9661C147.263 86.6131 148.418 86.2008 149.717 86.7359C150.237 86.95 150.977 86.7186 151.59 86.5902C152.271 86.4458 152.918 86.0771 153.599 86C154.937 85.8573 156.289 85.8585 157.636 85.7864C159.648 85.6826 161.673 85.6927 163.658 85.4136C166.381 85.0318 169.087 85.0254 171.817 85.0753C172.814 85.0949 173.982 85.1267 174.783 84.6653C176.266 83.8116 177.896 84.2791 179.372 83.7434C181.282 84.4285 183.241 83.9587 185.177 83.9042C190.07 83.7668 194.962 83.2775 199.85 83.7274C200.841 83.8172 201.715 83.2023 202.554 83.3541C204.319 83.67 206.02 83.4448 207.754 83.2945C209.769 83.1143 211.792 83.1332 213.809 82.9745C214.742 82.9032 215.512 83.1383 216.278 83.5629C216.352 83.8898 216.399 84.1607 216.478 84.4175C216.57 84.7358 216.655 85.0574 216.8 85.3439C217.145 86.02 217.688 86.2012 218.258 85.7469C218.61 85.4594 219.063 84.9763 219.044 84.6023C218.993 83.7102 219.624 83.5735 220.157 83.4514C221.817 83.0721 223.488 82.9132 225.185 83.3276C226.127 83.5596 227.16 83.9232 228.043 83.7247C229.179 83.4708 230.058 83.4316 230.732 84.416C231.636 84.0652 232.416 83.5908 233.239 83.4942C234.257 83.3769 235.308 83.5298 236.338 83.6393C237.194 83.7306 238.118 84.2036 238.866 83.9911C239.77 83.7383 240.446 83.8511 240.838 84.1004C241.937 83.9462 242.717 83.8022 243.502 83.738C244.42 83.6661 245.344 83.674 246.263 83.639C247.016 83.6042 247.781 83.4747 248.534 83.5225C250.919 83.6766 253.307 83.9347 255.699 84.0706C258.478 84.2262 261.258 84.4033 264.031 84.3813C265.806 84.3701 267.507 84.3777 269.062 85.3594C269.589 85.69 270.201 85.8094 270.711 85.2551C271.292 84.6237 271.936 84.781 272.673 84.9414C273.334 85.0839 274.048 84.9621 274.737 84.9863C275.259 85.0046 275.808 85.0025 276.293 85.1572C277.958 85.6837 279.561 86.4406 281.388 85.7306C281.753 85.5873 282.243 85.7698 282.681 85.8035C286.593 86.0967 290.514 86.3934 294.43 86.6776C295.553 86.7599 296.692 86.76 297.818 86.8485C298.305 86.89 298.779 87.0872 299.266 87.1287C303.234 87.4638 307.202 87.8141 311.18 88.0852Z" fill="#1F1E1C"/>
</g>
</svg>
